<svg xmlns="http://www.w3.org/2000/svg" viewBox="0 0 625.59 177.3"><defs><style>.cls-1{fill:#fff;}</style></defs><title>logo</title><g id="Capa_2" data-name="Capa 2"><g id="Capa_1-2" data-name="Capa 1"><path class="cls-1" d="M64.15,66.2l-.37.1.09,0Z"/><path class="cls-1" d="M65.14,65.91c-.09.18-.26.13-1,.29A5.36,5.36,0,0,0,65.14,65.91Z"/><path class="cls-1" d="M65.47,64.81c-.14.42-.2.69-.25.87A2.6,2.6,0,0,1,65.47,64.81Z"/><path class="cls-1" d="M81.41,77.84a.87.87,0,0,0-.36.09A.5.5,0,0,1,81.41,77.84Z"/><path class="cls-1" d="M81.46,81.65c0,.18-.09.35-.13.52,0-.08,0-.17,0-.26Z"/><path class="cls-1" d="M81.67,81a.2.2,0,0,0,0,.07c0,.07,0,.14-.07.2C81.62,81.15,81.65,81.06,81.67,81Z"/><path class="cls-1" d="M81.83,78.92a12,12,0,0,1-.08,1.31C81.76,80,81.77,79.57,81.83,78.92Z"/><path class="cls-1" d="M95.81,133.77c-4.56,1.53-8.11,1.45-10.58-.23-2.67-1.83-4.13-5.57-4.32-11.13-.2-5.72.12-11.53.44-17.16a178.26,178.26,0,0,0,.38-18.53c.07-.67.11-1.18.14-1.65.06-.76.11-1.43.27-2.57a8,8,0,0,1,.32-1.15,1.6,1.6,0,0,0,.05-.21v-.08a4.6,4.6,0,0,0,.07-.7,10.59,10.59,0,0,0,.09-1.46h0c.1-1.22-.4-1.66-.84-1.83a1.1,1.1,0,0,0-.26-.06,1.65,1.65,0,0,0-1.26.38,7.23,7.23,0,0,0-1.73,1.76c-.08.13-.15.27-.22.4l-.41.6c-1.07,1.82-2,3.73-2.84,5.57-2.44,5.17-4.74,10.05-10.64,12.51a12.32,12.32,0,0,1-1.81.27c-2.15.25-3.55.46-4.21,1-5.08-.6-7.52-3.2-9.42-9.28a227.26,227.26,0,0,1-5.72-24.49c-.45-2.28-.89-4.56-1.35-6.84a9.86,9.86,0,0,0-1-2.86c-.09-.67-.19-1.34-.29-2a25.8,25.8,0,0,1-.45-6.46,2.45,2.45,0,0,0-.42-1.87,1.85,1.85,0,0,0-1.37-.6,2.37,2.37,0,0,0-2,.65,2.42,2.42,0,0,0-.56.94c-.09.25-.18.48-.28.71a7.18,7.18,0,0,0-.63,2.31C34,63.15,30.14,76.16,26.07,88.22l-1.42,4.11a124.39,124.39,0,0,0-4.26,13.88c-1.83,8.22-3.63,15-8.46,20.71-4.07,1.54-7.33-.54-9.37-2.58C0,121.73-.67,117.91.71,113c2.49-8.84,5.21-17.63,7.84-26.14,6.09-19.7,10.26-34.94,13.53-49.42.72-3.19,1.57-6.41,2.39-9.52a166.38,166.38,0,0,0,3.77-16.68,7.12,7.12,0,0,1,2.86-5C32.94,5,35.65,4.51,39,4.91a15.83,15.83,0,0,0,3.95,4.34c4.06,2.61,4.84,6.33,5.74,10.63.28,1.34.57,2.72,1,4.11C52.81,34.82,55.26,44,57.86,53.8c1,3.66,2,7.42,3.06,11.44a2.36,2.36,0,0,1,.08.56,1.65,1.65,0,0,0,.61,1.37,1.5,1.5,0,0,0,.87.24,5,5,0,0,0,1.32-.23,9.85,9.85,0,0,1,1-.25,1.35,1.35,0,0,0,.9-.43,1.06,1.06,0,0,0,.29-.62l0-.08c0-.16.09-.39.2-.73,0,0,0,0,0,0s0,0,0,0A12.53,12.53,0,0,0,67,63.1a11.34,11.34,0,0,1,.48-1.32A192.77,192.77,0,0,0,74,42.1c1.53-5.22,3.11-10.63,5.17-16.19A115.53,115.53,0,0,0,82.89,13l.58-2.34C84.35,7.13,85.88,4.72,88,3.5a7.87,7.87,0,0,1,3.89-1c1.14,1.55,3.86,2.54,6.31,3.42l.47.17c.29.13.6.24.92.35l.29.11c.37.14.82.87,1,2.48l.14,1.31c.65,6.13,1.33,12.48.65,18.63-.91,8.22-1.21,16.6-1.5,24.69-.17,4.51-.34,9.17-.61,13.75-.14,2.41-.13,4.91-.11,7.33A74.06,74.06,0,0,1,99,85.93a61.6,61.6,0,0,0-.53,7.6,50.56,50.56,0,0,1-.77,8.9c-.14.66-.28,1.33-.43,2-.83,3.82-1.69,7.78-1.32,11.62.13,1.35.32,2.69.5,4C97.09,124.79,97.7,129.28,95.81,133.77Z"/><path class="cls-1" d="M396.46,26.7l-.27-.06a5.36,5.36,0,0,0-.84-.09,2,2,0,0,0-1.12.28,1.61,1.61,0,0,0-.35.34,3.52,3.52,0,0,0-.5,1.91c-.2,5-.6,10.27-1.24,16.06-.38,3.47-.85,7.13-1.41,11-.41,2.86-.73,5.79-1,8.62a144.59,144.59,0,0,1-2.3,15.68c-.08.34-.14.65-.19,1,0,.1,0,.19,0,.28s-.06.4-.08.59l0,.31c0,.17,0,.33,0,.49s0,.2,0,.3,0,.29,0,.42a2.53,2.53,0,0,0,0,.28c0,.13,0,.26,0,.37l0,.26c0,.12,0,.23.05.33a2,2,0,0,0,0,.24c0,.1.05.2.07.29s0,.14.07.21a2,2,0,0,0,.1.26,1.08,1.08,0,0,0,.08.19l.12.23a1,1,0,0,0,.1.17,1.43,1.43,0,0,0,.14.2l.11.15.16.18.11.13.18.16.13.1a1.56,1.56,0,0,0,.2.16l.12.08.24.14.1.06c.1.06.2.1.3.15l.06,0h0a4.32,4.32,0,0,0,.3-1.94c0-.38,0-.76.06-1.14.76-7.1,1.69-14.69,2.9-23.9.24-1.79.49-3.59.73-5.39,1.28-9.5,2.6-19.32,3.24-29Zm0,0-.27-.06a5.36,5.36,0,0,0-.84-.09,2,2,0,0,0-1.12.28,1.61,1.61,0,0,0-.35.34,3.52,3.52,0,0,0-.5,1.91c-.2,5-.6,10.27-1.24,16.06-.38,3.47-.85,7.13-1.41,11-.41,2.86-.73,5.79-1,8.62a144.59,144.59,0,0,1-2.3,15.68c-.08.34-.14.65-.19,1,0,.1,0,.19,0,.28s-.06.4-.08.59l0,.31c0,.17,0,.33,0,.49s0,.2,0,.3,0,.29,0,.42a2.53,2.53,0,0,0,0,.28c0,.13,0,.26,0,.37l0,.26c0,.12,0,.23.05.33a2,2,0,0,0,0,.24c0,.1.05.2.07.29s0,.14.07.21a2,2,0,0,0,.1.26,1.08,1.08,0,0,0,.08.19l.12.23a1,1,0,0,0,.1.17,1.43,1.43,0,0,0,.14.2l.11.15.16.18.11.13.18.16.13.1a1.56,1.56,0,0,0,.2.16l.12.08.24.14.1.06c.1.06.2.1.3.15l.06,0h0a4.32,4.32,0,0,0,.3-1.94c0-.38,0-.76.06-1.14.76-7.1,1.69-14.69,2.9-23.9.24-1.79.49-3.59.73-5.39,1.28-9.5,2.6-19.32,3.24-29Zm0,0-.27-.06a5.36,5.36,0,0,0-.84-.09,2,2,0,0,0-1.12.28,1.61,1.61,0,0,0-.35.34,3.52,3.52,0,0,0-.5,1.91c-.2,5-.6,10.27-1.24,16.06-.38,3.47-.85,7.13-1.41,11-.41,2.86-.73,5.79-1,8.62a144.59,144.59,0,0,1-2.3,15.68c-.08.34-.14.65-.19,1,0,.1,0,.19,0,.28s-.06.4-.08.59l0,.31c0,.17,0,.33,0,.49s0,.2,0,.3,0,.29,0,.42a2.53,2.53,0,0,0,0,.28c0,.13,0,.26,0,.37l0,.26c0,.12,0,.23.05.33a2,2,0,0,0,0,.24c0,.1.05.2.07.29s0,.14.07.21a2,2,0,0,0,.1.26,1.08,1.08,0,0,0,.08.19l.12.23a1,1,0,0,0,.1.17,1.43,1.43,0,0,0,.14.2l.11.15.16.18.11.13.18.16.13.1a1.56,1.56,0,0,0,.2.16l.12.08.24.14.1.06c.1.06.2.1.3.15l.06,0h0a4.32,4.32,0,0,0,.3-1.94c0-.38,0-.76.06-1.14.76-7.1,1.69-14.69,2.9-23.9.24-1.79.49-3.59.73-5.39,1.28-9.5,2.6-19.32,3.24-29Zm0,0-.27-.06a5.36,5.36,0,0,0-.84-.09,2,2,0,0,0-1.12.28,1.61,1.61,0,0,0-.35.34,3.52,3.52,0,0,0-.5,1.91c-.2,5-.6,10.27-1.24,16.06-.38,3.47-.85,7.13-1.41,11-.41,2.86-.73,5.79-1,8.62a144.59,144.59,0,0,1-2.3,15.68c-.08.34-.14.65-.19,1,0,.1,0,.19,0,.28s-.06.4-.08.59l0,.31c0,.17,0,.33,0,.49s0,.2,0,.3,0,.29,0,.42a2.53,2.53,0,0,0,0,.28c0,.13,0,.26,0,.37l0,.26c0,.12,0,.23.05.33a2,2,0,0,0,0,.24c0,.1.05.2.07.29s0,.14.07.21a2,2,0,0,0,.1.26,1.08,1.08,0,0,0,.08.19l.12.23a1,1,0,0,0,.1.17,1.43,1.43,0,0,0,.14.2l.11.15.16.18.11.13.18.16.13.1a1.56,1.56,0,0,0,.2.16l.12.08.24.14.1.06c.1.06.2.1.3.15l.06,0h0a4.32,4.32,0,0,0,.3-1.94c0-.38,0-.76.06-1.14.76-7.1,1.69-14.69,2.9-23.9.24-1.79.49-3.59.73-5.39,1.28-9.5,2.6-19.32,3.24-29Zm0,0-.27-.06a5.36,5.36,0,0,0-.84-.09,2,2,0,0,0-1.12.28,1.61,1.61,0,0,0-.35.34,3.52,3.52,0,0,0-.5,1.91c-.2,5-.6,10.27-1.24,16.06-.38,3.47-.85,7.13-1.41,11-.41,2.86-.73,5.79-1,8.62a144.59,144.59,0,0,1-2.3,15.68c-.08.34-.14.65-.19,1,0,.1,0,.19,0,.28s-.06.4-.08.59l0,.31c0,.17,0,.33,0,.49s0,.2,0,.3,0,.29,0,.42a2.53,2.53,0,0,0,0,.28c0,.13,0,.26,0,.37l0,.26c0,.12,0,.23.05.33a2,2,0,0,0,0,.24c0,.1.05.2.07.29s0,.14.07.21a2,2,0,0,0,.1.26,1.08,1.08,0,0,0,.08.19l.12.23a1,1,0,0,0,.1.17,1.43,1.43,0,0,0,.14.2l.11.15.16.18.11.13.18.16.13.1a1.56,1.56,0,0,0,.2.16l.12.08.24.14.1.06c.1.06.2.1.3.15l.06,0h0a4.32,4.32,0,0,0,.3-1.94c0-.38,0-.76.06-1.14.76-7.1,1.69-14.69,2.9-23.9.24-1.79.49-3.59.73-5.39,1.28-9.5,2.6-19.32,3.24-29Zm0,0-.27-.06a5.36,5.36,0,0,0-.84-.09,2,2,0,0,0-1.12.28,1.61,1.61,0,0,0-.35.34,3.52,3.52,0,0,0-.5,1.91c-.2,5-.6,10.27-1.24,16.06-.38,3.47-.85,7.13-1.41,11-.41,2.86-.73,5.79-1,8.62a144.59,144.59,0,0,1-2.3,15.68c-.08.34-.14.65-.19,1,0,.1,0,.19,0,.28s-.06.4-.08.59l0,.31c0,.17,0,.33,0,.49s0,.2,0,.3,0,.29,0,.42a2.53,2.53,0,0,0,0,.28c0,.13,0,.26,0,.37l0,.26c0,.12,0,.23.05.33a2,2,0,0,0,0,.24c0,.1.05.2.07.29s0,.14.07.21a2,2,0,0,0,.1.26,1.08,1.08,0,0,0,.08.19l.12.23a1,1,0,0,0,.1.17,1.43,1.43,0,0,0,.14.2l.11.15.16.18.11.13.18.16.13.1a1.56,1.56,0,0,0,.2.16l.12.08.24.14.1.06c.1.06.2.1.3.15l.06,0h0a4.32,4.32,0,0,0,.3-1.94c0-.38,0-.76.06-1.14.76-7.1,1.69-14.69,2.9-23.9.24-1.79.49-3.59.73-5.39,1.28-9.5,2.6-19.32,3.24-29Zm0,0-.27-.06a5.36,5.36,0,0,0-.84-.09,2,2,0,0,0-1.12.28,1.61,1.61,0,0,0-.35.34,3.52,3.52,0,0,0-.5,1.91c-.2,5-.6,10.27-1.24,16.06-.38,3.47-.85,7.13-1.41,11-.41,2.86-.73,5.79-1,8.62a144.59,144.59,0,0,1-2.3,15.68c-.08.34-.14.65-.19,1,0,.1,0,.19,0,.28s-.06.4-.08.59l0,.31c0,.17,0,.33,0,.49s0,.2,0,.3,0,.29,0,.42a2.53,2.53,0,0,0,0,.28c0,.13,0,.26,0,.37l0,.26c0,.12,0,.23.05.33a2,2,0,0,0,0,.24c0,.1.05.2.07.29s0,.14.07.21a2,2,0,0,0,.1.26,1.08,1.08,0,0,0,.08.19l.12.23a1,1,0,0,0,.1.17,1.43,1.43,0,0,0,.14.2l.11.15.16.18.11.13.18.16.13.1a1.56,1.56,0,0,0,.2.16l.12.08.24.14.1.06c.1.06.2.1.3.15l.06,0h0a4.32,4.32,0,0,0,.3-1.94c0-.38,0-.76.06-1.14.76-7.1,1.69-14.69,2.9-23.9.24-1.79.49-3.59.73-5.39,1.28-9.5,2.6-19.32,3.24-29Zm0,0-.27-.06a5.36,5.36,0,0,0-.84-.09,2,2,0,0,0-1.12.28,1.61,1.61,0,0,0-.35.34,3.52,3.52,0,0,0-.5,1.91c-.2,5-.6,10.27-1.24,16.06-.38,3.47-.85,7.13-1.41,11-.41,2.86-.73,5.79-1,8.62a144.59,144.59,0,0,1-2.3,15.68c-.08.34-.14.65-.19,1,0,.1,0,.19,0,.28s-.06.4-.08.59l0,.31c0,.17,0,.33,0,.49s0,.2,0,.3,0,.29,0,.42a2.53,2.53,0,0,0,0,.28c0,.13,0,.26,0,.37l0,.26c0,.12,0,.23.05.33a2,2,0,0,0,0,.24c0,.1.05.2.07.29s0,.14.07.21a2,2,0,0,0,.1.26,1.08,1.08,0,0,0,.08.19l.12.23a1,1,0,0,0,.1.17,1.43,1.43,0,0,0,.14.2l.11.15.16.18.11.13.18.16.13.1a1.56,1.56,0,0,0,.2.16l.12.08.24.14.1.06c.1.06.2.1.3.15l.06,0h0a4.32,4.32,0,0,0,.3-1.94c0-.38,0-.76.06-1.14.76-7.1,1.69-14.69,2.9-23.9.24-1.79.49-3.59.73-5.39,1.28-9.5,2.6-19.32,3.24-29Zm0,0-.27-.06a5.36,5.36,0,0,0-.84-.09,2,2,0,0,0-1.12.28,1.61,1.61,0,0,0-.35.34,3.52,3.52,0,0,0-.5,1.91c-.2,5-.6,10.27-1.24,16.06-.38,3.47-.85,7.13-1.41,11-.41,2.86-.73,5.79-1,8.62a144.59,144.59,0,0,1-2.3,15.68c-.08.34-.14.65-.19,1,0,.1,0,.19,0,.28s-.06.4-.08.59l0,.31c0,.17,0,.33,0,.49s0,.2,0,.3,0,.29,0,.42a2.53,2.53,0,0,0,0,.28c0,.13,0,.26,0,.37l0,.26c0,.12,0,.23.05.33a2,2,0,0,0,0,.24c0,.1.05.2.07.29s0,.14.07.21a2,2,0,0,0,.1.26,1.08,1.08,0,0,0,.08.19l.12.23a1,1,0,0,0,.1.17,1.43,1.43,0,0,0,.14.2l.11.15.16.18.11.13.18.16.13.1a1.56,1.56,0,0,0,.2.16l.12.08.24.14.1.06c.1.06.2.1.3.15l.06,0h0a4.32,4.32,0,0,0,.3-1.94c0-.38,0-.76.06-1.14.76-7.1,1.69-14.69,2.9-23.9.24-1.79.49-3.59.73-5.39,1.28-9.5,2.6-19.32,3.24-29Zm0,0-.27-.06a5.36,5.36,0,0,0-.84-.09,2,2,0,0,0-1.12.28,1.61,1.61,0,0,0-.35.34,3.52,3.52,0,0,0-.5,1.91c-.2,5-.6,10.27-1.24,16.06-.38,3.47-.85,7.13-1.41,11-.41,2.86-.73,5.79-1,8.62a144.59,144.59,0,0,1-2.3,15.68c-.08.34-.14.65-.19,1,0,.1,0,.19,0,.28s-.06.4-.08.59l0,.31c0,.17,0,.33,0,.49s0,.2,0,.3,0,.29,0,.42a2.53,2.53,0,0,0,0,.28c0,.13,0,.26,0,.37l0,.26c0,.12,0,.23.05.33a2,2,0,0,0,0,.24c0,.1.05.2.07.29s0,.14.07.21a2,2,0,0,0,.1.26,1.08,1.08,0,0,0,.08.19l.12.23a1,1,0,0,0,.1.17,1.43,1.43,0,0,0,.14.2l.11.15.16.18.11.13.18.16.13.1a1.56,1.56,0,0,0,.2.16l.12.08.24.14.1.06c.1.06.2.1.3.15l.06,0h0a4.32,4.32,0,0,0,.3-1.94c0-.38,0-.76.06-1.14.76-7.1,1.69-14.69,2.9-23.9.24-1.79.49-3.59.73-5.39,1.28-9.5,2.6-19.32,3.24-29Zm0,0-.27-.06a5.36,5.36,0,0,0-.84-.09,2,2,0,0,0-1.12.28,1.61,1.61,0,0,0-.35.34,3.52,3.52,0,0,0-.5,1.91c-.2,5-.6,10.27-1.24,16.06-.38,3.47-.85,7.13-1.41,11-.41,2.86-.73,5.79-1,8.62a144.59,144.59,0,0,1-2.3,15.68c-.08.34-.14.65-.19,1,0,.1,0,.19,0,.28s-.06.4-.08.59l0,.31c0,.17,0,.33,0,.49s0,.2,0,.3,0,.29,0,.42a2.53,2.53,0,0,0,0,.28c0,.13,0,.26,0,.37l0,.26c0,.12,0,.23.05.33a2,2,0,0,0,0,.24c0,.1.05.2.07.29s0,.14.07.21a2,2,0,0,0,.1.26,1.08,1.08,0,0,0,.08.19l.12.23a1,1,0,0,0,.1.17,1.43,1.43,0,0,0,.14.2l.11.15.16.18.11.13.18.16.13.1a1.56,1.56,0,0,0,.2.16l.12.08.24.14.1.06c.1.06.2.1.3.15l.06,0h0a4.32,4.32,0,0,0,.3-1.94c0-.38,0-.76.06-1.14.76-7.1,1.69-14.69,2.9-23.9.24-1.79.49-3.59.73-5.39,1.28-9.5,2.6-19.32,3.24-29Zm0,0-.27-.06a5.36,5.36,0,0,0-.84-.09,2,2,0,0,0-1.12.28,1.61,1.61,0,0,0-.35.34,3.52,3.52,0,0,0-.5,1.91c-.2,5-.6,10.27-1.24,16.06-.38,3.47-.85,7.13-1.41,11-.41,2.86-.73,5.79-1,8.62a144.59,144.59,0,0,1-2.3,15.68c-.08.34-.14.65-.19,1,0,.1,0,.19,0,.28s-.06.4-.08.59l0,.31c0,.17,0,.33,0,.49s0,.2,0,.3,0,.29,0,.42a2.53,2.53,0,0,0,0,.28c0,.13,0,.26,0,.37l0,.26c0,.12,0,.23.05.33a2,2,0,0,0,0,.24c0,.1.05.2.07.29s0,.14.07.21a2,2,0,0,0,.1.26,1.08,1.08,0,0,0,.08.19l.12.23a1,1,0,0,0,.1.17,1.43,1.43,0,0,0,.14.2l.11.15.16.18.11.13.18.16.13.1a1.56,1.56,0,0,0,.2.16l.12.08.24.14.1.06c.1.06.2.1.3.15l.06,0h0a4.32,4.32,0,0,0,.3-1.94c0-.38,0-.76.06-1.14.76-7.1,1.69-14.69,2.9-23.9.24-1.79.49-3.59.73-5.39,1.28-9.5,2.6-19.32,3.24-29Zm0,0-.27-.06a5.36,5.36,0,0,0-.84-.09,2,2,0,0,0-1.12.28,1.61,1.61,0,0,0-.35.34,3.52,3.52,0,0,0-.5,1.91c-.2,5-.6,10.27-1.24,16.06-.38,3.47-.85,7.13-1.41,11-.41,2.86-.73,5.79-1,8.62a144.59,144.59,0,0,1-2.3,15.68c-.08.34-.14.65-.19,1,0,.1,0,.19,0,.28s-.06.4-.08.59l0,.31c0,.17,0,.33,0,.49s0,.2,0,.3,0,.29,0,.42a2.53,2.53,0,0,0,0,.28c0,.13,0,.26,0,.37l0,.26c0,.12,0,.23.05.33a2,2,0,0,0,0,.24c0,.1.05.2.07.29s0,.14.07.21a2,2,0,0,0,.1.26,1.08,1.08,0,0,0,.08.19l.12.23a1,1,0,0,0,.1.17,1.43,1.43,0,0,0,.14.2l.11.15.16.18.11.13.18.16.13.1a1.56,1.56,0,0,0,.2.16l.12.08.24.14.1.06c.1.06.2.1.3.15l.06,0h0a4.32,4.32,0,0,0,.3-1.94c0-.38,0-.76.06-1.14.76-7.1,1.69-14.69,2.9-23.9.24-1.79.49-3.59.73-5.39,1.28-9.5,2.6-19.32,3.24-29Zm0,0-.27-.06a5.36,5.36,0,0,0-.84-.09,2,2,0,0,0-1.12.28,1.61,1.61,0,0,0-.35.34,3.52,3.52,0,0,0-.5,1.91c-.2,5-.6,10.27-1.24,16.06-.38,3.47-.85,7.13-1.41,11-.41,2.86-.73,5.79-1,8.62a144.59,144.59,0,0,1-2.3,15.68c-.08.34-.14.65-.19,1,0,.1,0,.19,0,.28s-.06.4-.08.59l0,.31c0,.17,0,.33,0,.49s0,.2,0,.3,0,.29,0,.42a2.53,2.53,0,0,0,0,.28c0,.13,0,.26,0,.37l0,.26c0,.12,0,.23.05.33a2,2,0,0,0,0,.24c0,.1.05.2.07.29s0,.14.07.21a2,2,0,0,0,.1.26,1.08,1.08,0,0,0,.08.19l.12.23a1,1,0,0,0,.1.17,1.43,1.43,0,0,0,.14.2l.11.15.16.18.11.13.18.16.13.1a1.56,1.56,0,0,0,.2.16l.12.08.24.14.1.06c.1.06.2.1.3.15l.06,0h0a4.32,4.32,0,0,0,.3-1.94c0-.38,0-.76.06-1.14.76-7.1,1.69-14.69,2.9-23.9.24-1.79.49-3.59.73-5.39,1.28-9.5,2.6-19.32,3.24-29Zm0,0-.27-.06a5.36,5.36,0,0,0-.84-.09,2,2,0,0,0-1.12.28,1.61,1.61,0,0,0-.35.34,3.52,3.52,0,0,0-.5,1.91c-.2,5-.6,10.27-1.24,16.06-.38,3.47-.85,7.13-1.41,11-.41,2.86-.73,5.79-1,8.62a144.59,144.59,0,0,1-2.3,15.68c-.08.34-.14.65-.19,1,0,.1,0,.19,0,.28s-.06.4-.08.59l0,.31c0,.17,0,.33,0,.49s0,.2,0,.3,0,.29,0,.42a2.53,2.53,0,0,0,0,.28c0,.13,0,.26,0,.37l0,.26c0,.12,0,.23.05.33a2,2,0,0,0,0,.24c0,.1.05.2.07.29s0,.14.07.21a2,2,0,0,0,.1.26,1.08,1.08,0,0,0,.08.19l.12.23a1,1,0,0,0,.1.17,1.43,1.43,0,0,0,.14.2l.11.15.16.18.11.13.18.16.13.1a1.56,1.56,0,0,0,.2.16l.12.08.24.14.1.06c.1.06.2.1.3.15l.06,0h0a4.32,4.32,0,0,0,.3-1.94c0-.38,0-.76.06-1.14.76-7.1,1.69-14.69,2.9-23.9.24-1.79.49-3.59.73-5.39,1.28-9.5,2.6-19.32,3.24-29Zm0,0-.27-.06a5.36,5.36,0,0,0-.84-.09,2,2,0,0,0-1.12.28,1.61,1.61,0,0,0-.35.34,3.52,3.52,0,0,0-.5,1.91c-.2,5-.6,10.27-1.24,16.06-.38,3.47-.85,7.13-1.41,11-.41,2.86-.73,5.79-1,8.62a144.59,144.59,0,0,1-2.3,15.68c-.08.34-.14.65-.19,1,0,.1,0,.19,0,.28s-.06.4-.08.59l0,.31c0,.17,0,.33,0,.49s0,.2,0,.3,0,.29,0,.42a2.53,2.53,0,0,0,0,.28c0,.13,0,.26,0,.37l0,.26c0,.12,0,.23.05.33a2,2,0,0,0,0,.24c0,.1.05.2.07.29s0,.14.07.21a2,2,0,0,0,.1.26,1.08,1.08,0,0,0,.08.19l.12.23a1,1,0,0,0,.1.17,1.43,1.43,0,0,0,.14.2l.11.15.16.18.11.13.18.16.13.1a1.56,1.56,0,0,0,.2.16l.12.08.24.14.1.06c.1.06.2.1.3.15l.06,0h0a4.32,4.32,0,0,0,.3-1.94c0-.38,0-.76.06-1.14.76-7.1,1.69-14.69,2.9-23.9.24-1.79.49-3.59.73-5.39,1.28-9.5,2.6-19.32,3.24-29Zm0,0-.27-.06a5.36,5.36,0,0,0-.84-.09,2,2,0,0,0-1.12.28,1.61,1.61,0,0,0-.35.34,3.52,3.52,0,0,0-.5,1.91c-.2,5-.6,10.27-1.24,16.06-.38,3.47-.85,7.13-1.41,11-.41,2.86-.73,5.79-1,8.62a144.59,144.59,0,0,1-2.3,15.68c-.08.34-.14.65-.19,1,0,.1,0,.19,0,.28s-.06.4-.08.59l0,.31c0,.17,0,.33,0,.49s0,.2,0,.3,0,.29,0,.42a2.53,2.53,0,0,0,0,.28c0,.13,0,.26,0,.37l0,.26c0,.12,0,.23.05.33a2,2,0,0,0,0,.24c0,.1.05.2.07.29s0,.14.07.21a2,2,0,0,0,.1.26,1.08,1.08,0,0,0,.08.19l.12.23a1,1,0,0,0,.1.17,1.43,1.43,0,0,0,.14.2l.11.15.16.18.11.13.18.16.13.1a1.56,1.56,0,0,0,.2.16l.12.08.24.14.1.06c.1.06.2.1.3.15l.06,0h0a4.32,4.32,0,0,0,.3-1.94c0-.38,0-.76.06-1.14.76-7.1,1.69-14.69,2.9-23.9.24-1.79.49-3.59.73-5.39,1.28-9.5,2.6-19.32,3.24-29Zm0,0-.27-.06a5.36,5.36,0,0,0-.84-.09,2,2,0,0,0-1.12.28,1.61,1.61,0,0,0-.35.34,3.52,3.52,0,0,0-.5,1.91c-.2,5-.6,10.27-1.24,16.06-.38,3.47-.85,7.13-1.41,11-.41,2.86-.73,5.79-1,8.62a144.59,144.59,0,0,1-2.3,15.68c-.08.34-.14.65-.19,1,0,.1,0,.19,0,.28s-.06.4-.08.59l0,.31c0,.17,0,.33,0,.49s0,.2,0,.3,0,.29,0,.42a2.53,2.53,0,0,0,0,.28c0,.13,0,.26,0,.37l0,.26c0,.12,0,.23.05.33a2,2,0,0,0,0,.24c0,.1.05.2.07.29s0,.14.07.21a2,2,0,0,0,.1.26,1.08,1.08,0,0,0,.08.19l.12.23a1,1,0,0,0,.1.17,1.43,1.43,0,0,0,.14.2l.11.15.16.18.11.13.18.16.13.1a1.56,1.56,0,0,0,.2.16l.12.08.24.14.1.06c.1.06.2.1.3.15l.06,0h0a4.32,4.32,0,0,0,.3-1.94c0-.38,0-.76.06-1.14.76-7.1,1.69-14.69,2.9-23.9.24-1.79.49-3.59.73-5.39,1.28-9.5,2.6-19.32,3.24-29Zm40.2,39.93a29.46,29.46,0,0,0,3.5-19.15c-.23-1.67-.39-3.37-.55-5-.49-5.13-1-10.44-3.58-15.17a38.51,38.51,0,0,0-14.25-15.08,4.59,4.59,0,0,1-2-2.52l-.18-.41-.06-.11-.12-.23-.07-.11a1,1,0,0,0-.13-.16.38.38,0,0,0-.09-.09l-.11-.09L415.85,8c-2.46-.38-5-.77-7.5-1.07a35.76,35.76,0,0,0-4.25-.25c-6.28,0-12.44,1.52-18.43,3l-3.59.88c-4.39,1-7.27,5.75-6.42,10.51a35.89,35.89,0,0,1,0,12.36c-1.74,9.8-2.82,19.85-3.87,29.58q-.49,4.7-1,9.39c-1.07,9.33-1.94,18.8-2.58,28.13-.79,11.46-3.35,22.75-5.82,33.66-.9,4-1.83,8.11-2.67,12.17-.17.87-.39,1.75-.6,2.63a23.88,23.88,0,0,0-1,7.56c.64,6.67,7,12.4,14.3,12.82l1-.32,2.38-.73,1.69-.54,1.85-.6c.63-.2,1.27-.43,1.9-.64L383,166l2-.74,1.57-.57c.69-.26,1.39-.55,2.09-.82l1.51-.6c.73-.3,1.45-.62,2.18-.93l1.41-.61c.81-.36,1.62-.75,2.43-1.14.38-.18.77-.35,1.15-.54,1.18-.59,2.37-1.2,3.54-1.84,2.63-1.43,4.75-2.71,6.32-5.16,1.19-1.87,2.51-3.7,3.78-5.46,3-4.19,6.13-8.52,7.76-13.68,4-12.73,3.27-23.73-2.3-33.62-2.18-3.87-.58-6.33,1.46-8.42A129.13,129.13,0,0,0,436.66,66.63Zm-47.14,78.51a14.11,14.11,0,0,0-1.71,1.14c-1.46,1.05-3.11,2.23-5.34,2.12l-.05,0-.07.09c0,.05-.07.11-.11.17l-.07.11-.11.21-.06.12c0,.08-.07.16-.11.23a.36.36,0,0,1,0,.09,4.36,4.36,0,0,1-1.05,1.62,2,2,0,0,1-1.26.46,3,3,0,0,1-1.23-.3,3.91,3.91,0,0,1-2.16-2.22c-.58-1.66.2-3.57.83-4.85,4-8,4.47-16.91,4.95-25.51l.11-1.82c.11-2,.66-3.33,1.69-4.12a3,3,0,0,1,.78-.46l.05,0a4.07,4.07,0,0,1,.88-.24l.11,0a6.57,6.57,0,0,1,1,0h.17a10.29,10.29,0,0,1,1.16.13h.1l1.91-1.12c1.6-.93,3.24-1.89,4.9-2.79,2.9-1.56,5.58-1.81,7.55-.69,1.3.74,2.88,2.41,3,6.16C406,128.58,400.81,138.89,389.52,145.14Zm9.05-59.4-1.63,1a25.88,25.88,0,0,1-6.84,3.34.83.83,0,0,1-.22,0,.71.71,0,0,1-.29,0,6.07,6.07,0,0,1-4.33-6.35,18,18,0,0,1,.48-3.59A139.33,139.33,0,0,0,388,64.63c.31-2.85.63-5.79,1.05-8.68.43-3.06.81-5.94,1.14-8.7.78-6.66,1.27-12.6,1.49-18.24a5,5,0,0,1,.93-3,3.14,3.14,0,0,1,.66-.6,3.62,3.62,0,0,1,.43-.24l.11-.05.36-.13.15,0,.36-.07.19,0,.37,0h.22a2.36,2.36,0,0,1,.37,0l.26,0,.38.05.28.06.39.09.32.1.26.07c14-3.47,23.27,1.83,26.86,15.32,2,7.49-.84,13.36-4.18,19.2C415.16,69,409.21,79.44,398.57,85.74Zm-2.38-59.1a5.36,5.36,0,0,0-.84-.09,2,2,0,0,0-1.12.28,1.61,1.61,0,0,0-.35.34,3.52,3.52,0,0,0-.5,1.91c-.2,5-.6,10.27-1.24,16.06-.38,3.47-.85,7.13-1.41,11-.41,2.86-.73,5.79-1,8.62a144.59,144.59,0,0,1-2.3,15.68c-.08.34-.14.65-.19,1,0,.1,0,.19,0,.28s-.06.4-.08.59l0,.31c0,.17,0,.33,0,.49s0,.2,0,.3,0,.29,0,.42a2.53,2.53,0,0,0,0,.28c0,.13,0,.26,0,.37l0,.26c0,.12,0,.23.05.33a2,2,0,0,0,0,.24c0,.1.05.2.07.29s0,.14.07.21a2,2,0,0,0,.1.26,1.08,1.08,0,0,0,.08.19l.12.23a1,1,0,0,0,.1.17,1.43,1.43,0,0,0,.14.2l.11.15.16.18.11.13.18.16.13.1a1.56,1.56,0,0,0,.2.16l.12.08.24.14.1.06c.1.06.2.1.3.15l.06,0h0a4.32,4.32,0,0,0,.3-1.94c0-.38,0-.76.06-1.14.76-7.1,1.69-14.69,2.9-23.9.24-1.79.49-3.59.73-5.39,1.28-9.5,2.6-19.32,3.24-29l-.34-.1Zm.27.06-.27-.06a5.36,5.36,0,0,0-.84-.09,2,2,0,0,0-1.12.28,1.61,1.61,0,0,0-.35.34,3.52,3.52,0,0,0-.5,1.91c-.2,5-.6,10.27-1.24,16.06-.38,3.47-.85,7.13-1.41,11-.41,2.86-.73,5.79-1,8.62a144.59,144.59,0,0,1-2.3,15.68c-.08.34-.14.65-.19,1,0,.1,0,.19,0,.28s-.06.4-.08.59l0,.31c0,.17,0,.33,0,.49s0,.2,0,.3,0,.29,0,.42a2.53,2.53,0,0,0,0,.28c0,.13,0,.26,0,.37l0,.26c0,.12,0,.23.05.33a2,2,0,0,0,0,.24c0,.1.05.2.07.29s0,.14.07.21a2,2,0,0,0,.1.26,1.08,1.08,0,0,0,.08.19l.12.23a1,1,0,0,0,.1.17,1.43,1.43,0,0,0,.14.2l.11.15.16.18.11.13.18.16.13.1a1.56,1.56,0,0,0,.2.16l.12.08.24.14.1.06c.1.06.2.1.3.15l.06,0h0a4.32,4.32,0,0,0,.3-1.94c0-.38,0-.76.06-1.14.76-7.1,1.69-14.69,2.9-23.9.24-1.79.49-3.59.73-5.39,1.28-9.5,2.6-19.32,3.24-29Zm0,0-.27-.06a5.36,5.36,0,0,0-.84-.09,2,2,0,0,0-1.12.28,1.61,1.61,0,0,0-.35.34,3.52,3.52,0,0,0-.5,1.91c-.2,5-.6,10.27-1.24,16.06-.38,3.47-.85,7.13-1.41,11-.41,2.86-.73,5.79-1,8.62a144.59,144.59,0,0,1-2.3,15.68c-.08.34-.14.65-.19,1,0,.1,0,.19,0,.28s-.06.4-.08.59l0,.31c0,.17,0,.33,0,.49s0,.2,0,.3,0,.29,0,.42a2.53,2.53,0,0,0,0,.28c0,.13,0,.26,0,.37l0,.26c0,.12,0,.23.05.33a2,2,0,0,0,0,.24c0,.1.05.2.07.29s0,.14.07.21a2,2,0,0,0,.1.26,1.08,1.08,0,0,0,.08.19l.12.23a1,1,0,0,0,.1.17,1.43,1.43,0,0,0,.14.2l.11.15.16.18.11.13.18.16.13.1a1.56,1.56,0,0,0,.2.16l.12.08.24.14.1.06c.1.06.2.1.3.15l.06,0h0a4.32,4.32,0,0,0,.3-1.94c0-.38,0-.76.06-1.14.76-7.1,1.69-14.69,2.9-23.9.24-1.79.49-3.59.73-5.39,1.28-9.5,2.6-19.32,3.24-29Zm0,0-.27-.06a5.36,5.36,0,0,0-.84-.09,2,2,0,0,0-1.12.28,1.61,1.61,0,0,0-.35.34,3.52,3.52,0,0,0-.5,1.91c-.2,5-.6,10.27-1.24,16.06-.38,3.47-.85,7.13-1.41,11-.41,2.86-.73,5.79-1,8.62a144.59,144.59,0,0,1-2.3,15.68c-.08.34-.14.65-.19,1,0,.1,0,.19,0,.28s-.06.4-.08.59l0,.31c0,.17,0,.33,0,.49s0,.2,0,.3,0,.29,0,.42a2.53,2.53,0,0,0,0,.28c0,.13,0,.26,0,.37l0,.26c0,.12,0,.23.05.33a2,2,0,0,0,0,.24c0,.1.05.2.07.29s0,.14.07.21a2,2,0,0,0,.1.26,1.08,1.08,0,0,0,.08.19l.12.23a1,1,0,0,0,.1.17,1.43,1.43,0,0,0,.14.2l.11.15.16.18.11.13.18.16.13.1a1.56,1.56,0,0,0,.2.16l.12.08.24.14.1.06c.1.06.2.1.3.15l.06,0h0a4.32,4.32,0,0,0,.3-1.94c0-.38,0-.76.06-1.14.76-7.1,1.69-14.69,2.9-23.9.24-1.79.49-3.59.73-5.39,1.28-9.5,2.6-19.32,3.24-29Zm0,0-.27-.06a5.36,5.36,0,0,0-.84-.09,2,2,0,0,0-1.12.28,1.61,1.61,0,0,0-.35.34,3.52,3.52,0,0,0-.5,1.91c-.2,5-.6,10.27-1.24,16.06-.38,3.47-.85,7.13-1.41,11-.41,2.86-.73,5.79-1,8.62a144.59,144.59,0,0,1-2.3,15.68c-.08.34-.14.65-.19,1,0,.1,0,.19,0,.28s-.06.4-.08.59l0,.31c0,.17,0,.33,0,.49s0,.2,0,.3,0,.29,0,.42a2.53,2.53,0,0,0,0,.28c0,.13,0,.26,0,.37l0,.26c0,.12,0,.23.05.33a2,2,0,0,0,0,.24c0,.1.05.2.07.29s0,.14.07.21a2,2,0,0,0,.1.26,1.08,1.08,0,0,0,.08.19l.12.23a1,1,0,0,0,.1.17,1.43,1.43,0,0,0,.14.2l.11.15.16.18.11.13.18.16.13.1a1.56,1.56,0,0,0,.2.16l.12.08.24.14.1.06c.1.06.2.1.3.15l.06,0h0a4.32,4.32,0,0,0,.3-1.94c0-.38,0-.76.06-1.14.76-7.1,1.69-14.69,2.9-23.9.24-1.79.49-3.59.73-5.39,1.28-9.5,2.6-19.32,3.24-29Zm0,0-.27-.06a5.36,5.36,0,0,0-.84-.09,2,2,0,0,0-1.12.28,1.61,1.61,0,0,0-.35.34,3.52,3.52,0,0,0-.5,1.91c-.2,5-.6,10.27-1.24,16.06-.38,3.47-.85,7.13-1.41,11-.41,2.86-.73,5.79-1,8.62a144.59,144.59,0,0,1-2.3,15.68c-.08.34-.14.65-.19,1,0,.1,0,.19,0,.28s-.06.4-.08.59l0,.31c0,.17,0,.33,0,.49s0,.2,0,.3,0,.29,0,.42a2.53,2.53,0,0,0,0,.28c0,.13,0,.26,0,.37l0,.26c0,.12,0,.23.05.33a2,2,0,0,0,0,.24c0,.1.05.2.07.29s0,.14.07.21a2,2,0,0,0,.1.26,1.08,1.08,0,0,0,.08.19l.12.23a1,1,0,0,0,.1.17,1.43,1.43,0,0,0,.14.2l.11.15.16.18.11.13.18.16.13.1a1.56,1.56,0,0,0,.2.16l.12.08.24.14.1.06c.1.06.2.1.3.15l.06,0h0a4.32,4.32,0,0,0,.3-1.94c0-.38,0-.76.06-1.14.76-7.1,1.69-14.69,2.9-23.9.24-1.79.49-3.59.73-5.39,1.28-9.5,2.6-19.32,3.24-29Zm0,0-.27-.06a5.36,5.36,0,0,0-.84-.09,2,2,0,0,0-1.12.28,1.61,1.61,0,0,0-.35.34,3.52,3.52,0,0,0-.5,1.91c-.2,5-.6,10.27-1.24,16.06-.38,3.47-.85,7.13-1.41,11-.41,2.86-.73,5.79-1,8.62a144.59,144.59,0,0,1-2.3,15.68c-.08.34-.14.65-.19,1,0,.1,0,.19,0,.28s-.06.4-.08.59l0,.31c0,.17,0,.33,0,.49s0,.2,0,.3,0,.29,0,.42a2.53,2.53,0,0,0,0,.28c0,.13,0,.26,0,.37l0,.26c0,.12,0,.23.05.33a2,2,0,0,0,0,.24c0,.1.05.2.07.29s0,.14.07.21a2,2,0,0,0,.1.26,1.08,1.08,0,0,0,.08.19l.12.23a1,1,0,0,0,.1.17,1.43,1.43,0,0,0,.14.2l.11.15.16.18.11.13.18.16.13.1a1.56,1.56,0,0,0,.2.16l.12.08.24.14.1.06c.1.06.2.1.3.15l.06,0h0a4.32,4.32,0,0,0,.3-1.94c0-.38,0-.76.06-1.14.76-7.1,1.69-14.69,2.9-23.9.24-1.79.49-3.59.73-5.39,1.28-9.5,2.6-19.32,3.24-29Zm0,0-.27-.06a5.36,5.36,0,0,0-.84-.09,2,2,0,0,0-1.12.28,1.61,1.61,0,0,0-.35.34,3.52,3.52,0,0,0-.5,1.91c-.2,5-.6,10.27-1.24,16.06-.38,3.47-.85,7.13-1.41,11-.41,2.86-.73,5.79-1,8.62a144.59,144.59,0,0,1-2.3,15.68c-.08.34-.14.65-.19,1,0,.1,0,.19,0,.28s-.06.4-.08.59l0,.31c0,.17,0,.33,0,.49s0,.2,0,.3,0,.29,0,.42a2.53,2.53,0,0,0,0,.28c0,.13,0,.26,0,.37l0,.26c0,.12,0,.23.05.33a2,2,0,0,0,0,.24c0,.1.05.2.07.29s0,.14.07.21a2,2,0,0,0,.1.26,1.08,1.08,0,0,0,.08.19l.12.23a1,1,0,0,0,.1.17,1.43,1.43,0,0,0,.14.2l.11.15.16.18.11.13.18.16.13.1a1.56,1.56,0,0,0,.2.16l.12.08.24.14.1.06c.1.06.2.1.3.15l.06,0h0a4.32,4.32,0,0,0,.3-1.94c0-.38,0-.76.06-1.14.76-7.1,1.69-14.69,2.9-23.9.24-1.79.49-3.59.73-5.39,1.28-9.5,2.6-19.32,3.24-29Zm0,0-.27-.06a5.36,5.36,0,0,0-.84-.09,2,2,0,0,0-1.12.28,1.61,1.61,0,0,0-.35.34,3.52,3.52,0,0,0-.5,1.91c-.2,5-.6,10.27-1.24,16.06-.38,3.47-.85,7.13-1.41,11-.41,2.86-.73,5.79-1,8.62a144.59,144.59,0,0,1-2.3,15.68c-.08.34-.14.65-.19,1,0,.1,0,.19,0,.28s-.06.4-.08.59l0,.31c0,.17,0,.33,0,.49s0,.2,0,.3,0,.29,0,.42a2.53,2.53,0,0,0,0,.28c0,.13,0,.26,0,.37l0,.26c0,.12,0,.23.05.33a2,2,0,0,0,0,.24c0,.1.05.2.07.29s0,.14.07.21a2,2,0,0,0,.1.26,1.08,1.08,0,0,0,.08.19l.12.23a1,1,0,0,0,.1.17,1.43,1.43,0,0,0,.14.2l.11.15.16.18.11.13.18.16.13.1a1.56,1.56,0,0,0,.2.16l.12.08.24.14.1.06c.1.06.2.1.3.15l.06,0h0a4.32,4.32,0,0,0,.3-1.94c0-.38,0-.76.06-1.14.76-7.1,1.69-14.69,2.9-23.9.24-1.79.49-3.59.73-5.39,1.28-9.5,2.6-19.32,3.24-29Zm0,0-.27-.06a5.36,5.36,0,0,0-.84-.09,2,2,0,0,0-1.12.28,1.61,1.61,0,0,0-.35.34,3.52,3.52,0,0,0-.5,1.91c-.2,5-.6,10.27-1.24,16.06-.38,3.47-.85,7.13-1.41,11-.41,2.86-.73,5.79-1,8.62a144.59,144.59,0,0,1-2.3,15.68c-.08.34-.14.65-.19,1,0,.1,0,.19,0,.28s-.06.4-.08.59l0,.31c0,.17,0,.33,0,.49s0,.2,0,.3,0,.29,0,.42a2.53,2.53,0,0,0,0,.28c0,.13,0,.26,0,.37l0,.26c0,.12,0,.23.05.33a2,2,0,0,0,0,.24c0,.1.05.2.07.29s0,.14.07.21a2,2,0,0,0,.1.26,1.08,1.08,0,0,0,.08.19l.12.23a1,1,0,0,0,.1.17,1.43,1.43,0,0,0,.14.2l.11.15.16.18.11.13.18.16.13.1a1.56,1.56,0,0,0,.2.16l.12.08.24.14.1.06c.1.06.2.1.3.15l.06,0h0a4.32,4.32,0,0,0,.3-1.94c0-.38,0-.76.06-1.14.76-7.1,1.69-14.69,2.9-23.9.24-1.79.49-3.59.73-5.39,1.28-9.5,2.6-19.32,3.24-29Zm0,0-.27-.06a5.36,5.36,0,0,0-.84-.09,2,2,0,0,0-1.12.28,1.61,1.61,0,0,0-.35.34,3.52,3.52,0,0,0-.5,1.91c-.2,5-.6,10.27-1.24,16.06-.38,3.47-.85,7.13-1.41,11-.41,2.86-.73,5.79-1,8.62a144.59,144.59,0,0,1-2.3,15.68c-.08.34-.14.65-.19,1,0,.1,0,.19,0,.28s-.06.4-.08.59l0,.31c0,.17,0,.33,0,.49s0,.2,0,.3,0,.29,0,.42a2.53,2.53,0,0,0,0,.28c0,.13,0,.26,0,.37l0,.26c0,.12,0,.23.05.33a2,2,0,0,0,0,.24c0,.1.05.2.07.29s0,.14.07.21a2,2,0,0,0,.1.26,1.08,1.08,0,0,0,.08.19l.12.23a1,1,0,0,0,.1.17,1.43,1.43,0,0,0,.14.2l.11.15.16.18.11.13.18.16.13.1a1.56,1.56,0,0,0,.2.16l.12.08.24.14.1.06c.1.06.2.1.3.15l.06,0h0a4.32,4.32,0,0,0,.3-1.94c0-.38,0-.76.06-1.14.76-7.1,1.69-14.69,2.9-23.9.24-1.79.49-3.59.73-5.39,1.28-9.5,2.6-19.32,3.24-29Zm0,0-.27-.06a5.36,5.36,0,0,0-.84-.09,2,2,0,0,0-1.12.28,1.61,1.61,0,0,0-.35.34,3.52,3.52,0,0,0-.5,1.91c-.2,5-.6,10.27-1.24,16.06-.38,3.47-.85,7.13-1.41,11-.41,2.86-.73,5.79-1,8.62a144.59,144.59,0,0,1-2.3,15.68c-.08.34-.14.65-.19,1,0,.1,0,.19,0,.28s-.06.4-.08.59l0,.31c0,.17,0,.33,0,.49s0,.2,0,.3,0,.29,0,.42a2.53,2.53,0,0,0,0,.28c0,.13,0,.26,0,.37l0,.26c0,.12,0,.23.05.33a2,2,0,0,0,0,.24c0,.1.05.2.07.29s0,.14.07.21a2,2,0,0,0,.1.26,1.08,1.08,0,0,0,.08.19l.12.23a1,1,0,0,0,.1.17,1.43,1.43,0,0,0,.14.2l.11.15.16.18.11.13.18.16.13.1a1.56,1.56,0,0,0,.2.16l.12.08.24.14.1.06c.1.06.2.1.3.15l.06,0h0a4.32,4.32,0,0,0,.3-1.94c0-.38,0-.76.06-1.14.76-7.1,1.69-14.69,2.9-23.9.24-1.79.49-3.59.73-5.39,1.28-9.5,2.6-19.32,3.24-29Zm0,0-.27-.06a5.36,5.36,0,0,0-.84-.09,2,2,0,0,0-1.12.28,1.61,1.61,0,0,0-.35.34,3.52,3.52,0,0,0-.5,1.91c-.2,5-.6,10.27-1.24,16.06-.38,3.47-.85,7.13-1.41,11-.41,2.86-.73,5.79-1,8.62a144.59,144.59,0,0,1-2.3,15.68c-.08.34-.14.65-.19,1,0,.1,0,.19,0,.28s-.06.4-.08.59l0,.31c0,.17,0,.33,0,.49s0,.2,0,.3,0,.29,0,.42a2.53,2.53,0,0,0,0,.28c0,.13,0,.26,0,.37l0,.26c0,.12,0,.23.05.33a2,2,0,0,0,0,.24c0,.1.05.2.07.29s0,.14.07.21a2,2,0,0,0,.1.26,1.08,1.08,0,0,0,.08.19l.12.23a1,1,0,0,0,.1.17,1.43,1.43,0,0,0,.14.2l.11.15.16.18.11.13.18.16.13.1a1.56,1.56,0,0,0,.2.16l.12.08.24.14.1.06c.1.06.2.1.3.15l.06,0h0a4.32,4.32,0,0,0,.3-1.94c0-.38,0-.76.06-1.14.76-7.1,1.69-14.69,2.9-23.9.24-1.79.49-3.59.73-5.39,1.28-9.5,2.6-19.32,3.24-29Zm0,0-.27-.06a5.36,5.36,0,0,0-.84-.09,2,2,0,0,0-1.12.28,1.61,1.61,0,0,0-.35.34,3.52,3.52,0,0,0-.5,1.91c-.2,5-.6,10.27-1.24,16.06-.38,3.47-.85,7.13-1.41,11-.41,2.86-.73,5.79-1,8.62a144.59,144.59,0,0,1-2.3,15.68c-.08.34-.14.65-.19,1,0,.1,0,.19,0,.28s-.06.4-.08.59l0,.31c0,.17,0,.33,0,.49s0,.2,0,.3,0,.29,0,.42a2.53,2.53,0,0,0,0,.28c0,.13,0,.26,0,.37l0,.26c0,.12,0,.23.05.33a2,2,0,0,0,0,.24c0,.1.05.2.07.29s0,.14.07.21a2,2,0,0,0,.1.26,1.08,1.08,0,0,0,.08.19l.12.23a1,1,0,0,0,.1.17,1.43,1.43,0,0,0,.14.2l.11.15.16.18.11.13.18.16.13.1a1.56,1.56,0,0,0,.2.16l.12.08.24.14.1.06c.1.06.2.1.3.15l.06,0h0a4.32,4.32,0,0,0,.3-1.94c0-.38,0-.76.06-1.14.76-7.1,1.69-14.69,2.9-23.9.24-1.79.49-3.59.73-5.39,1.28-9.5,2.6-19.32,3.24-29Zm0,0-.27-.06a5.36,5.36,0,0,0-.84-.09,2,2,0,0,0-1.12.28,1.61,1.61,0,0,0-.35.34,3.52,3.52,0,0,0-.5,1.91c-.2,5-.6,10.27-1.24,16.06-.38,3.47-.85,7.13-1.41,11-.41,2.86-.73,5.79-1,8.62a144.59,144.59,0,0,1-2.3,15.68c-.08.34-.14.65-.19,1,0,.1,0,.19,0,.28s-.06.4-.08.59l0,.31c0,.17,0,.33,0,.49s0,.2,0,.3,0,.29,0,.42a2.53,2.53,0,0,0,0,.28c0,.13,0,.26,0,.37l0,.26c0,.12,0,.23.05.33a2,2,0,0,0,0,.24c0,.1.05.2.07.29s0,.14.07.21a2,2,0,0,0,.1.26,1.08,1.08,0,0,0,.08.19l.12.23a1,1,0,0,0,.1.17,1.43,1.43,0,0,0,.14.2l.11.15.16.18.11.13.18.16.13.1a1.56,1.56,0,0,0,.2.16l.12.08.24.14.1.06c.1.06.2.1.3.15l.06,0h0a4.32,4.32,0,0,0,.3-1.94c0-.38,0-.76.06-1.14.76-7.1,1.69-14.69,2.9-23.9.24-1.79.49-3.59.73-5.39,1.28-9.5,2.6-19.32,3.24-29Zm0,0-.27-.06a5.36,5.36,0,0,0-.84-.09,2,2,0,0,0-1.12.28,1.61,1.61,0,0,0-.35.34,3.52,3.52,0,0,0-.5,1.91c-.2,5-.6,10.27-1.24,16.06-.38,3.47-.85,7.13-1.41,11-.41,2.86-.73,5.79-1,8.62a144.59,144.59,0,0,1-2.3,15.68c-.08.34-.14.65-.19,1,0,.1,0,.19,0,.28s-.06.4-.08.59l0,.31c0,.17,0,.33,0,.49s0,.2,0,.3,0,.29,0,.42a2.53,2.53,0,0,0,0,.28c0,.13,0,.26,0,.37l0,.26c0,.12,0,.23.05.33a2,2,0,0,0,0,.24c0,.1.05.2.07.29s0,.14.07.21a2,2,0,0,0,.1.26,1.08,1.08,0,0,0,.08.19l.12.23a1,1,0,0,0,.1.17,1.43,1.43,0,0,0,.14.2l.11.15.16.18.11.13.18.16.13.1a1.56,1.56,0,0,0,.2.16l.12.08.24.14.1.06c.1.06.2.1.3.15l.06,0h0a4.32,4.32,0,0,0,.3-1.94c0-.38,0-.76.06-1.14.76-7.1,1.69-14.69,2.9-23.9.24-1.79.49-3.59.73-5.39,1.28-9.5,2.6-19.32,3.24-29Z"/><path class="cls-1" d="M287.51,14.62c-.13.31-.26.61-.36.88a101.45,101.45,0,0,1-10,18.24c-8.21,12.4-15.71,25.49-23,38.14q-3.89,6.78-7.8,13.53c-1.86,3.18-1.46,6-.2,9.53,2.23,6.29,5.47,12.13,8.61,17.77,1.82,3.27,3.69,6.64,5.34,10.05.81,1.68,1.6,3.38,2.39,5.08a134.17,134.17,0,0,0,7.05,13.75c3,4.87,4.83,8.9-.74,12.68a1,1,0,0,0-.28.29l-.06.1a2.56,2.56,0,0,0-.11.24.5.5,0,0,1,0,.13,2.34,2.34,0,0,0,0,.26s0,.07,0,.1v0c-7.42.3-10.47-4.83-13.73-10.26-.57-.94-1.13-1.87-1.72-2.78a120.35,120.35,0,0,1-7.64-14.68c-1-2.17-2-4.41-3.08-6.51-.07-.19-.14-.37-.22-.55a4.08,4.08,0,0,1-.49-2.25,3.87,3.87,0,0,0-.78-3.09,3,3,0,0,0-2.12-1.18h-.13a2.58,2.58,0,0,0-.29,0l-.22,0a2.78,2.78,0,0,0-.4.16l-.08,0a4.41,4.41,0,0,0-1.58,2.61,8.44,8.44,0,0,1-.29.85,3.49,3.49,0,0,0-.14,1.62,3.61,3.61,0,0,1,0,.73c-.41,2.91-.65,5.86-.89,8.73-.18,2.14-.37,4.35-.62,6.52-.06.53-.16,1.09-.25,1.66,0,.19-.07.38-.1.58l0,.17-.06.42a2,2,0,0,0,0,.24c0,.13,0,.25-.05.37a2.28,2.28,0,0,0,0,.26c0,.12,0,.24,0,.36s0,.18,0,.27,0,.23,0,.35,0,.18,0,.27v.35c0,.09,0,.19,0,.28s0,.23,0,.34l0,.28c0,.11,0,.23,0,.34s0,.18.05.27,0,.23.08.34.05.18.08.27.08.22.12.33a2.6,2.6,0,0,0,.1.25c.05.11.1.22.16.33s.08.17.13.25.14.22.21.33.1.15.16.22a4.19,4.19,0,0,0,.28.34l.17.19a5.16,5.16,0,0,0,.41.39l.13.12a6.45,6.45,0,0,0,.63.47c-2.24,3.28-5.46,4.74-9,4a9,9,0,0,1-7.29-9.05,212.15,212.15,0,0,1,1.29-27.35c.71-5.83,1.57-11.75,2.41-17.47s1.72-11.77,2.43-17.68a108.53,108.53,0,0,1,2.77-13.34c.64-2.55,1.3-5.19,1.84-7.81a126.28,126.28,0,0,0,2.94-25.64c0-3.32.28-6.7.55-10,.3-3.63.61-7.39.55-11.13-.06-3.32,2.13-5.54,6.88-7,3.22-1,6.34,0,8.79,2.76a13.79,13.79,0,0,1,1.29,1.8l.11.16,0,0-.17.13c-.18.13-.36.27-.52.41l-.21.22q-.19.2-.36.39l-.19.27q-.14.2-.27.42t-.15.3c-.07.15-.13.3-.19.46s-.08.22-.11.33-.09.34-.13.53,0,.22-.07.34a6.33,6.33,0,0,0-.06.64,3,3,0,0,0,0,.31,9.08,9.08,0,0,0,0,1l.08,1.26A39.92,39.92,0,0,1,249.11,26a46.75,46.75,0,0,0-.58,10.83c.05,2.24.11,4.56-.06,6.81a2.93,2.93,0,0,0,.66,2.19,2.47,2.47,0,0,0,1.73.85h.36l.25,0,.22,0,.24-.07.23-.11.18-.09a2.47,2.47,0,0,0,.38-.28,2.94,2.94,0,0,0,.86-2.17V43.8c0-1.3,0-2.43.82-3.3a1.13,1.13,0,0,0,.1-.13c1.13-1.85,2.28-3.68,3.43-5.51,5.28-8.45,10.74-17.18,14.76-26.57a9.32,9.32,0,0,1,5.86-5.38,10.27,10.27,0,0,1,8.16,1s0,0,0,0-.05.09-.07.14l0,.05-.09.16a1.71,1.71,0,0,0,.2,2.48C289.65,8.86,288.81,11.56,287.51,14.62Z"/><path class="cls-1" d="M557.4,43.85c-1.18,4.92-3.45,6.61-8.79,6.51-4.71-.07-6.89-2.13-7.77-7.34-.24-1.37-.47-2.75-.7-4.12l-.22-1.34.09-.1a4.8,4.8,0,0,0,.81-1.15c.72-1.57,2.9-6.37-1.31-8.65a3.38,3.38,0,0,0-2.78-.41c-1.37.48-2,2-2.54,3.3-.17.41-.34.8-.52,1.15-3.22,6.1-6.52,12.66-8.24,19.8a48.22,48.22,0,0,1-3,8.09c-1.57,3.57-3.19,7.25-3.62,11.37a70.6,70.6,0,0,1-2,11.47c-1,3.43-2.13,6.86-3.27,10.18a129.66,129.66,0,0,0-4.47,15c-.34,1.59-.68,3.17-1,4.75-2.42,11-4.91,22.33-2.77,34.06.38,2.05,1,5.48,4.5,6.16a5.82,5.82,0,0,0,1.08.11h0a4.8,4.8,0,0,0,.85-.07l.25-.06c.2-.05.41-.1.61-.17l.33-.15a4.23,4.23,0,0,0,.47-.25,2.37,2.37,0,0,0,.33-.22,4.46,4.46,0,0,0,.43-.33,3.84,3.84,0,0,0,.3-.28,5.49,5.49,0,0,0,.4-.43l.27-.32c.13-.18.26-.38.39-.58s.14-.21.2-.33c.18-.31.34-.64.5-1,0,0,0,0,0-.05.12-.27.23-.54.34-.82a6.1,6.1,0,0,1,1.2-2.21,3.42,3.42,0,0,0,1.37-2.59,1.85,1.85,0,0,0-.06-.42c0-.05,0-.09,0-.14a2.5,2.5,0,0,0-.09-.25.8.8,0,0,0-.08-.16,2,2,0,0,0-.11-.2,1.63,1.63,0,0,0-.11-.17l-.12-.15a1.46,1.46,0,0,0-.16-.19l-.09-.1a9.21,9.21,0,0,0-.86-.77c.26-.71.49-1.44.73-2.16a27.86,27.86,0,0,1,2.34-5.77,7.35,7.35,0,0,1,7.8-3.82c3.52.65,6.86,1.85,7.47,6.14a7.41,7.41,0,0,0,.48,1.66l-.23.08-.26.09-.33.15-.22.1-.31.19-.16.11a4.19,4.19,0,0,0-.33.26l-.09.07a4,4,0,0,0-.35.37l-.09.12c-.07.09-.15.18-.21.27l-.1.17-.15.25-.09.19c0,.09-.08.17-.11.25s0,.14-.08.2a2.58,2.58,0,0,0-.08.26,1.72,1.72,0,0,0-.07.21L533,140a1.6,1.6,0,0,0-.05.21l-.06.27,0,.21a2.51,2.51,0,0,0,0,.27l0,.19,0,.29c0,.06,0,.12,0,.18l0,.3s0,.11,0,.16l0,.43a12.22,12.22,0,0,1-.25,2.06c-.25,1-.51,2-.8,3-2,7-5.51,14-13.5,17.68-.31.14-.61.29-.9.44l-.28.15-.55.31-.31.2-.46.29-.3.22-.41.31-.29.24-.36.32-.27.26c-.11.11-.23.22-.33.34a3.33,3.33,0,0,0-.25.28l-.31.36-.23.3-.13.17c-12.16-.73-18.78-6.81-21.46-19.67-2-9.75-1.51-19.63-1-29.19.09-1.67.18-3.34.26-5a36.83,36.83,0,0,0,2.43-8.61,47.44,47.44,0,0,1,1.5-6.2c5.59-16.5,10.47-33.43,14.5-47.82a255.49,255.49,0,0,1,12.79-36c2.77-6.16,5.9-8.22,12.45-8.19.74,0,1.48,0,2.22,0a20.8,20.8,0,0,1,6.19.43l-.09,0c-1.1.63-2.6,1.5-2.17,3.29A2.59,2.59,0,0,0,541.39,14a6.22,6.22,0,0,0,4.14.75c.6-.06.93.26,1.5.88.21.22.42.45.65.65,6.15,5.4,6.93,12.67,7.76,20.37l.2,1.82a12.13,12.13,0,0,1,0,1.23v.54c0,.05,0,.11,0,.17s0,.27,0,.4a1.79,1.79,0,0,0,0,.23c0,.12,0,.24,0,.37l.06.24.09.35a1.86,1.86,0,0,0,.1.25,2.41,2.41,0,0,0,.15.33l.14.24a3.24,3.24,0,0,0,.24.31l.19.21a3.24,3.24,0,0,0,.34.29l.24.18Z"/><path class="cls-1" d="M222.4,25.87c0,.24,0,.48,0,.72s0,.46-.05.69,0,.48,0,.72-.08.48-.11.71-.07.49-.12.73-.11.49-.17.74-.1.43-.16.66c-4.62,5.3-8.92,5.61-14.68,1v0a4.57,4.57,0,0,0,.32-.62l0-.12a4.76,4.76,0,0,0,.19-.61s0-.07,0-.11a4.2,4.2,0,0,0,.08-.62s0,0,0-.06c0-.2,0-.4,0-.6V29c0-.21-.05-.41-.08-.61,0,0,0-.07,0-.1a5.78,5.78,0,0,0-.12-.57l0-.1c0-.19-.1-.37-.15-.55l0-.1c0-.18-.11-.36-.16-.53a9.84,9.84,0,0,1-.53-2.23,3.88,3.88,0,0,0-1.17-2.82,2.09,2.09,0,0,0-.47-.28,2.59,2.59,0,0,0-1.54-.2,4.22,4.22,0,0,0-3.52,3.51,11,11,0,0,0-.18,1.76,5.9,5.9,0,0,1-.5,2.57c-5,9.91-8.31,20.59-11.53,30.93-.52,1.66-1,3.31-1.56,5-5.38,17-8.71,31.33-10.49,45.07a38.62,38.62,0,0,0-.33,4.93,28.05,28.05,0,0,0,.75,6.67,23.86,23.86,0,0,0,2.26,5.89q.08.12.15.27l.05.08.12.23.06.09c.05.08.09.16.14.23l.07.11.15.24.07.1.18.25a.36.36,0,0,0,.07.1l.21.27.06.07.27.31,0,0a5.25,5.25,0,0,0,.7.62l0,0,.35.23.1.06a3,3,0,0,0,.31.15l.14.07.3.11.17,0,.31.07.19,0,.32,0h.28l.3,0h.18a4.28,4.28,0,0,0,.59-.1c.39-.09.74-.19,1.08-.3l.31-.13c.22-.09.43-.17.62-.27s.21-.12.32-.18a5.21,5.21,0,0,0,.46-.3,3.11,3.11,0,0,0,.28-.23l.36-.33a3,3,0,0,0,.22-.28c.09-.12.18-.25.26-.38a3,3,0,0,0,.16-.31,3.25,3.25,0,0,0,.18-.43,3.37,3.37,0,0,0,.09-.34,4,4,0,0,0,.09-.5c0-.12,0-.23,0-.36a.59.59,0,0,0,0-.13c2.53-.86,4.1-2.89,5.5-4.69.22-.29.44-.57.67-.85,4.47-5.58,6.08-6.29,10.73-4.78s6.19,3.77,6.38,9.79h0l-.17.06-.44.18-.21.11-.35.19-.21.13-.3.22-.21.17-.28.25c-.06.06-.13.12-.19.19l-.27.31a1.73,1.73,0,0,0-.17.21,4,4,0,0,0-.29.39,2.43,2.43,0,0,0-.14.2c-.14.21-.28.43-.42.67-2.81,4.84-6.44,10.18-12.16,13.13-4.1,2.12-8.53,2.56-13.22,3l-2.4.25-.76.09-1.62.21c-10.72-2-16.05-12.73-16.47-21.93-.23-5.16-.21-10.44-.19-15.53,0-2.3,0-4.59,0-6.88l.15-1,.11-.7c.89-5.36,1.81-10.25,2.79-14.82s2-8.82,3.15-12.92c4.89-17.66,10.87-38.09,19.93-57.12A33.46,33.46,0,0,1,195.74,4c4.76-4.16,9.92-5,15.78-2.67,0,0,0,0,0,0a3.52,3.52,0,0,0-.18.67.44.44,0,0,1,0,.1,3.14,3.14,0,0,0,0,.61v.11a5,5,0,0,0,.09.58l0,.09a4.1,4.1,0,0,0,.45,1.07l0,.07.28.44.05.07.28.38,0,0,.26.32a14.73,14.73,0,0,0,1.58,1.58,9,9,0,0,1,1.73,1.85c.41.66.8,1.32,1.19,2,.14.22.27.45.4.67s.24.42.35.63.27.46.39.68l.36.66.34.65c.12.22.22.43.33.65l.33.66.29.65c.1.22.21.44.3.66s.18.43.27.64l.27.67c.08.21.15.42.22.64s.17.45.24.68.12.42.18.63.14.46.2.69.1.43.15.65.11.46.15.69.07.44.11.65.08.47.1.71,0,.44.06.66,0,.47,0,.71S222.4,25.65,222.4,25.87Z"/><path class="cls-1" d="M483.44,103.55a1.8,1.8,0,0,0,.53,1.39c2.17,2.44,1.38,4.85.53,7.4-.23.71-.48,1.45-.65,2.18a190.41,190.41,0,0,1-10.64,33.25c-2.79,6.4-7.41,10.95-12.72,15.83a5,5,0,0,1-1.78.83l-.48.16-.14,0-.35.13-.19.08-.31.14-.2.1-.29.17a1.37,1.37,0,0,0-.2.13l-.27.2-.19.16a3.13,3.13,0,0,0-.25.26l-.16.17c-.08.11-.16.23-.23.35l-.12.18,0,0c-1.28,0-2.56,0-3.81.08a23.59,23.59,0,0,1-7.24-.41c-8.11-2.19-12.57-8.39-13.62-19-.86-8.61,1-17.09,2.72-25.28.38-1.81.77-3.62,1.14-5.44a36.51,36.51,0,0,0,.46-7.54c0-1.1,0-2.24,0-3.35.19-5.15,1.18-8.94,5.44-10.67a10.69,10.69,0,0,1,4-.83,9.65,9.65,0,0,1,7,3.21l0,.73c0,.2,0,.4,0,.6s0,.61,0,.92,0,.36,0,.55c0,.35-.05.71-.08,1.06l0,.4-.15,1.45a33.1,33.1,0,0,0-.27,5.88c.53,6.86-.46,13.72-1.41,20.36a111.72,111.72,0,0,0-1.57,17.43c0,1.57.06,4.21,2.21,4.53l.45,0h.11l.22,0a2.29,2.29,0,0,0,.36-.07,1.17,1.17,0,0,0,.2-.06,1.87,1.87,0,0,0,.35-.16l.17-.08a3.09,3.09,0,0,0,.45-.36,3.9,3.9,0,0,0,.94-3.14l.14-.12a3.32,3.32,0,0,0,.38-.36h0c6.54-7.12,9.37-15.92,11.45-24.36.44-1.81.78-3.65,1.11-5.44.83-4.51,1.61-8.77,4-12.7,2-3.28,4.33-5.22,7-5.76s5.22.26,8.1,2.26a.55.55,0,0,1-.11.17l0,0-.2.19-.08.07-.35.27A2.63,2.63,0,0,0,483.44,103.55Z"/><path class="cls-1" d="M155.64,90.61a35.47,35.47,0,0,0-.51-3.75,25.92,25.92,0,0,1-.54-6.09,3.46,3.46,0,0,0-1.87-3c-.27-.13-.53-.27-.78-.41l-.24-.15c-.15-.1-.31-.19-.46-.3l-.24-.19a3.65,3.65,0,0,1-.37-.29c-.09-.07-.16-.15-.24-.22l-.31-.3-.21-.24a3.88,3.88,0,0,1-.26-.31l-.18-.25-.22-.32a2.54,2.54,0,0,1-.16-.28,3.54,3.54,0,0,1-.19-.33l-.13-.28c0-.11-.11-.23-.15-.34s-.08-.2-.11-.3a3.62,3.62,0,0,1-.13-.35l-.09-.31-.09-.36c0-.1,0-.21-.07-.31s-.05-.25-.08-.37,0-.21,0-.32,0-.25-.05-.37,0-.22,0-.33l0-.38c0-.11,0-.22,0-.33s0-.26,0-.39,0-.22,0-.33,0-.26,0-.39v-.48c-3.19-2.35-5.91-3.52-8.63-3.52s-5.32,1.12-8.39,3.35c-8.36,6-14.74,14.73-19.51,26.54-2.29,5.65-3,11.58-3.6,17.67-.61,6.31,1.37,11.62,5.73,15.34,5.4,4.62,14.13,6.42,21.79,4.52l.31-.28.33-.3.43-.32c.11-.09.22-.18.34-.26l.45-.28.34-.21.49-.26.33-.17.53-.24.29-.13.6-.23.23-.1.7-.25.13,0,.8-.27c7.26-2.43,9.44-8.82,11.35-16.29C154.58,105.64,156.14,98.23,155.64,90.61Zm-16.7-1.24a5.24,5.24,0,0,0-.47.59,2.88,2.88,0,0,0-.12,1.22c0,.26,0,.51,0,.76,1.44,7.18,1.88,15.32-5.46,21.49l-.25.24a2.61,2.61,0,0,1-.23.24c-.09.09-.18.16-.27.24s-.17.15-.26.21a2.83,2.83,0,0,1-.28.2l-.26.19-.3.16-.27.15-.31.14-.27.11-.33.1-.25.08-.38.07-.2,0-.58,0a3.93,3.93,0,0,1-2.3-.7c-2.41-1.66-2.52-5.07-1.56-7.71a114,114,0,0,1,5.61-12.3l.36-.71c.32-.62.6-1.27.89-2a14.38,14.38,0,0,1,3.19-5.19,4.67,4.67,0,0,0,.42-.53,3.87,3.87,0,0,1,1.25-1.23,2,2,0,0,1,.61-.19,2.47,2.47,0,0,1,1.87.65,2.44,2.44,0,0,1,1.07,1.67A2.62,2.62,0,0,1,138.94,89.37Z"/><path class="cls-1" d="M345.39,103.85a17.07,17.07,0,0,1-.67-4.34c.08-7.93-.22-16-.51-23.82-.27-7.1-.54-14.45-.53-21.69,0-5.49-.38-10.24-5.18-12.9-.68-.38-.66-1.22-.65-2v-.14c-4.88-1.74-9-.66-13,3.38-5.13,5.22-8.13,11.87-11,18.3-.42.94-.85,1.88-1.28,2.82a100.06,100.06,0,0,0-5.11,15.22c-1.69,6.13-3.45,12.46-6.58,18.28-.87,1.61-1.08,3-.62,4,.54,1.24,2,2.23,4.34,2.94.23-.25.46-.52.68-.78s.48-.55.7-.83.5-.69.75-1,.41-.57.61-.87.45-.73.67-1.1.36-.58.53-.88.41-.77.6-1.16.32-.6.47-.9.37-.81.56-1.21l.4-.9c.19-.43.36-.86.54-1.29s.23-.57.34-.85c.2-.49.38-1,.56-1.46l.27-.7c.27-.72.53-1.44.79-2.15.57-1.56,1.15-3.17,1.78-4.73.87-2.2,2-3.49,3.35-3.94a4.21,4.21,0,0,1,.48-.12l.18,0c.11,0,.21,0,.32,0h.51l.24,0,.29,0,.25.07.3.08.27.1.3.12.28.12.31.16.29.16.18.1a32.94,32.94,0,0,1,5.15-.11,20.32,20.32,0,0,0,7.23-.62,3.35,3.35,0,0,1,1.1-.19,2.61,2.61,0,0,1,1.52.47,3.46,3.46,0,0,1,1.26,2.86c0,1.36.05,2.73.09,4.09a69.73,69.73,0,0,1-.24,10.71c-.48,3.73-.12,6,1.11,7s3,.92,5.9.08C345.46,104.15,345.42,104,345.39,103.85Zm-9.29-33.6a3.83,3.83,0,0,1-2.91,1l-.77,0c-2.34-.2-4.76-.19-7.09-.18-1.05,0-2.1,0-3.14,0H319a.86.86,0,0,1-.68-.34.78.78,0,0,1-.15-.44.81.81,0,0,1,0-.31,63.29,63.29,0,0,1,5.32-12.81,74.84,74.84,0,0,1,4.66-7.38c1.23-1.72,2.68-2.63,4.09-2.55A3.31,3.31,0,0,1,335,49.05a.67.67,0,0,1,.1.3v0c.17,1.65.35,3.3.52,5,.41,3.91.83,8,1.32,11.92C337.06,67.55,337.11,69.2,336.1,70.25Z"/><path class="cls-1" d="M422.3,93.61c-1.25,1.41-2.8,3.15-1.28,6.11,8,15.51,6.49,30.59-4.85,48.88-8.39,13.56-21.51,18.06-35.4,22.83l-1.32.45a23.06,23.06,0,0,1-3.53.84c-1.18.2-2,.1-2.39-.26a2,2,0,0,1-.25-1.57l1.7-.52,1.51-.47,2-.63,1.61-.52,1.95-.66,1.65-.57,2-.71,1.64-.61c.67-.25,1.34-.52,2-.79l1.61-.63c.7-.29,1.4-.6,2.1-.91.51-.22,1-.42,1.51-.65.79-.35,1.57-.73,2.35-1.1l1.25-.59c1.2-.59,2.39-1.21,3.58-1.85,2.74-1.5,5.15-3,6.93-5.74,1.17-1.84,2.47-3.64,3.73-5.39,3.09-4.29,6.29-8.73,8-14.15,4.17-13.21,3.38-24.65-2.44-35-1.55-2.76-.78-4.37,1.19-6.38a130.7,130.7,0,0,0,19-25.55,31.06,31.06,0,0,0,3.72-20.24c-.22-1.63-.38-3.32-.54-5a52.12,52.12,0,0,0-2.1-12,23.28,23.28,0,0,0-1.68-3.85,40.08,40.08,0,0,0-14.88-15.73A3.1,3.1,0,0,1,421.38,9c-.07-.19-.16-.38-.25-.58l-.1-.18a4.1,4.1,0,0,0-.23-.4.25.25,0,0,1,0-.07A3.41,3.41,0,0,1,424,8.1c12.79,8.55,19.05,18.45,19.7,31.14a46.72,46.72,0,0,0,.55,4.66c.1.71.21,1.42.3,2.13,1.34,10.44-1.66,20.39-9.45,31.32C431.2,82.86,427,88.2,422.64,93.23Z"/><path class="cls-1" d="M619.44,32.8l-.87,1.68c-3.54,6.87-7.72,13.53-11.75,20-4.25,6.8-8.65,13.82-12.35,21.13a131.23,131.23,0,0,1-8.29,13.5c-1.84,2.73-3.74,5.56-5.47,8.43l-.12.19c-2.1,3.47-4.27,7.06-1.57,12.5,6.08,12.27,12.42,24.65,18.55,36.63L603,157.53c2.87,5.63,5.07,10.75,2.94,16.51-.09.24-.17.51-.26.78-.43,1.4-.73,2.19-2,2.26-.79,0-1.08-.07-1.18-.17a.86.86,0,0,1-.16-.54c.14-.29.24-.59.37-.88s.23-.54.33-.81.2-.66.3-1,.17-.53.23-.79.12-.68.18-1,.1-.52.13-.77,0-.7,0-1.05,0-.5,0-.74-.05-.73-.08-1.09,0-.47,0-.71-.14-.76-.22-1.14c0-.22-.07-.43-.13-.65a12.23,12.23,0,0,0-.4-1.26c-.06-.18-.1-.36-.16-.53a18.76,18.76,0,0,0-.79-1.79c-2.7-5.38-5.59-10.77-8.38-16-1.46-2.73-2.93-5.46-4.37-8.2-2.32-4.39-4.44-9-6.49-13.45-2.21-4.81-4.5-9.77-7-14.52-2.05-3.8-2.06-6.53,0-9.7,1.48-2.34,3-4.66,4.52-7,4-6,8-12.29,11.5-18.76s7.46-13,11.3-19.21,7.93-12.85,11.48-19.54c.5-.95,1-1.9,1.53-2.84,2.73-5,5.55-10.18,6.77-16.12a9.67,9.67,0,0,0-.7-6.66,6.53,6.53,0,0,1-.29-.61l-.06-.19a2.54,2.54,0,0,1-.1-.37,1.62,1.62,0,0,1,0-.2,1.67,1.67,0,0,1,0-.31c0-.07,0-.14,0-.21a2.7,2.7,0,0,1,0-.28,1.72,1.72,0,0,1,.07-.21l.09-.26.12-.22c0-.09.09-.17.14-.26l.16-.23.2-.26.2-.25.1-.12c1.5.09,1.75,1.07,2.06,2.82.05.29.11.57.17.85C627,18.39,623.3,25.39,619.44,32.8Z"/><path class="cls-1" d="M290,19.9l-.18.39c-3.78,8.1-8.72,15.73-13.49,23.1-2.89,4.47-5.88,9.08-8.59,13.77-2.85,5-5.74,9.87-8.63,14.8s-5.78,9.86-8.64,14.8a6.45,6.45,0,0,0-.47,5.29c1.67,6.45,5,12.14,8.14,17.65a95.49,95.49,0,0,1,6.24,12.06,107.18,107.18,0,0,0,6,11.88A99.33,99.33,0,0,1,276.49,146c1.78,4.61.8,7.35-3.74,10.46a2.48,2.48,0,0,1-1.67.63c-.33-.07-.68-.4-1.09-1a1.34,1.34,0,0,1,0-.2c0-.08,0-.18,0-.26,6.56-4.58,4.12-9.84,1.05-14.85a132.5,132.5,0,0,1-6.95-13.57c-.8-1.71-1.59-3.42-2.41-5.11-1.67-3.45-3.56-6.85-5.38-10.13-3.11-5.59-6.32-11.36-8.5-17.51-1.12-3.15-1.47-5.49.07-8.12q3.93-6.74,7.8-13.53C262.93,60.1,270.42,47,278.6,34.68a103.12,103.12,0,0,0,10.13-18.55c.1-.26.22-.54.35-.84,1.08-2.54,2.88-6.77-1.28-9.81a3.14,3.14,0,0,1,.18-.31c.07-.12.15-.26.22-.4h0a3.19,3.19,0,0,0,.2-.46,3.86,3.86,0,0,1,3,1.2,6.38,6.38,0,0,1,1.38,3.59C293.24,13,291.67,16.36,290,19.9Z"/><path class="cls-1" d="M539.27,35.61a3.49,3.49,0,0,1-.54.73l0,0c-2.52-.38-3.38,2-3.76,3-1.24,3.41-2.61,6.83-3.93,10.15-4.17,10.42-8.49,21.2-9.3,33-.22,3.25-1.57,6.18-3,9.3a38,38,0,0,0-2.8,7.42c-.63,2.8-1.32,5.65-2,8.39-1.88,7.68-3.83,15.61-4.54,23.77a47,47,0,0,0,.12,7.71,50.38,50.38,0,0,1,.15,7.29.86.86,0,0,0,1.15.86c1.66-.63,2.34-2.1,2.95-3.39.68-1.47,1.15-2.34,2.42-2.43l.06,0,.09.07.16.13.1.09.14.11.1.09.12.11.09.09.11.11.07.09.09.11.05.07.07.12,0,.07a.55.55,0,0,1,0,.17c0,.31-.28.76-.82,1.27A7.21,7.21,0,0,0,515,147c-.1.26-.2.52-.31.77-1.06,2.46-2.6,3.51-4.58,3.12s-2.64-2-3.15-4.8c-2.09-11.39.37-22.57,2.75-33.39.35-1.58.7-3.17,1-4.75a126.8,126.8,0,0,1,4.42-14.83c1.14-3.34,2.33-6.8,3.29-10.27a71.71,71.71,0,0,0,2-11.76c.4-3.84,1.9-7.25,3.49-10.85a49.34,49.34,0,0,0,3.1-8.38c1.68-6.95,4.92-13.4,8.1-19.41.2-.38.39-.83.58-1.29.41-1,.88-2.12,1.53-2.35a.94.94,0,0,1,.3-.05h0a1.46,1.46,0,0,1,.4.07l.13,0a3.27,3.27,0,0,1,.53.23C540.68,30.22,540.85,32.15,539.27,35.61Z"/><path class="cls-1" d="M105.59,37.72c-.3,4.68-.62,9.52-.65,14.29,0,1.24,0,2.49,0,3.74,0,6.09,0,12.38-.57,18.53-.29,3.39-.54,6.79-.79,10.19-.61,8.18-1.23,16.64-2.45,24.91a39,39,0,0,0,.38,14.45c.63,2.73,1.06,5.88-.5,8.56-.61,1.05-1.34,2.14-2.16,2.28a1.94,1.94,0,0,1-1.35-.4c2-4.91,1.37-9.8.71-14.54-.18-1.29-.37-2.62-.5-3.93-.35-3.57.49-7.4,1.29-11.1.15-.68.29-1.35.43-2a52.75,52.75,0,0,0,.81-9.2,63.41,63.41,0,0,1,.5-7.39,72.88,72.88,0,0,0,.52-11.44c0-2.39,0-4.86.12-7.22.27-4.59.44-9.26.6-13.78.29-8.07.59-16.41,1.5-24.56.7-6.35,0-12.78-.66-19l-.14-1.32c-.23-2.17-1-3.46-2.16-3.82l-.34-.12-.78-.29a3,3,0,0,1-1.59-1.26c3.49.94,6.95,2.85,7.52,6.38C106.81,19,106.19,28.51,105.59,37.72Z"/><path class="cls-1" d="M206,29.31a1.61,1.61,0,0,1,0,.22,2.83,2.83,0,0,1,0,.29,2.07,2.07,0,0,1,0,.22,2.68,2.68,0,0,1-.07.27l-.08.21-.13.27a2.39,2.39,0,0,1-.13.21.86.86,0,0,1-.07.1c-3.7-.12-4.6,3-5.22,5-.08.28-.16.56-.25.82q-1.8,5.43-3.65,10.84C191.68,61.64,186.83,76,183.64,90.5c-.26,1.18-.52,2.36-.79,3.55-1.62,7.15-3.3,14.54-3,22.15,0,.28,0,.56,0,.84a11.9,11.9,0,0,0,.28,2.77c.65,2.44,1.82,6.88,6.78,6.91a2.34,2.34,0,0,1-.05.3.8.8,0,0,1,0,.15,1.91,1.91,0,0,1-.18.47.47.47,0,0,0-.06.09,2.43,2.43,0,0,1-.24.32l-.13.13a2,2,0,0,1-.27.23l-.18.12a2.59,2.59,0,0,1-.33.19l-.22.11-.44.17-.22.08c-.24.07-.49.14-.77.2-1.83.41-2.87-.75-4-2.89-2.51-4.59-3.32-10-2.49-16.45,1.77-13.63,5.08-27.86,10.43-44.78.53-1.66,1-3.32,1.56-5,3.2-10.27,6.51-20.88,11.43-30.66a7.5,7.5,0,0,0,.68-3.27,10.18,10.18,0,0,1,.14-1.49,2.52,2.52,0,0,1,2.13-2.17l.24,0,.25,0,0,0a.74.74,0,0,1,.13.08,2.36,2.36,0,0,1,.55,1.6,10.66,10.66,0,0,0,.6,2.64c.07.23.13.44.2.65a1,1,0,0,0,0,.18c0,.15.08.29.11.43a1.43,1.43,0,0,1,0,.22c0,.12.05.23.07.35l0,.22C206,29.1,206,29.21,206,29.31Z"/><path class="cls-1" d="M39.16,56.38c-2.22,12-6,23.79-9.58,35.2-1.88,5.94-3.83,12.08-5.54,18.19-1.8,6.41-3.56,12.15-6.86,17.51-.61,1-1.3,1.55-1.95,1.56a2.46,2.46,0,0,1-1.77-1.1l.13-.15c4.86-6,6.69-12.8,8.53-21.09a124.22,124.22,0,0,1,4.2-13.69c.49-1.38,1-2.75,1.43-4.13,4.11-12.17,8-25.31,9-39A5.62,5.62,0,0,1,37.21,48l.3-.78a1.77,1.77,0,0,1,.08-.22c.1-.07.27-.08.65-.06h.16a1.39,1.39,0,0,1,0,.59,27.52,27.52,0,0,0,.46,6.88C39,55,39.07,55.71,39.16,56.38Z"/><path class="cls-1" d="M489.07,110.45a8.75,8.75,0,0,0-.35,3.49c0,.47,0,.93,0,1.38a75.07,75.07,0,0,0-3.34,11.2A70.67,70.67,0,0,1,481.92,138c-.78,1.79-1.52,3.64-2.23,5.43-2.42,6-4.92,12.28-9.28,17.29a45.77,45.77,0,0,1-9.21,7.79c-1.82,1.23-2.78,1.26-3.28,1.06s-.92-.82-1.18-1.82l0-.09c0-.05.05-.1.08-.14a1.4,1.4,0,0,1,.12-.18l.09-.12.15-.15.11-.1a1.09,1.09,0,0,1,.17-.13.57.57,0,0,1,.13-.08l.2-.12.13-.07.25-.11.13,0,.32-.12.11,0,.46-.16a6.12,6.12,0,0,0,2.41-1.19c5.46-5,10.21-9.7,13.12-16.4a192,192,0,0,0,10.75-33.54,21,21,0,0,1,.61-2c.86-2.62,1.95-5.88-.88-9.06-.05,0-.07-.09-.09-.1a3.44,3.44,0,0,1,.59-.51L486,103l.09-.07.22-.19.11-.1.18-.19.11-.14.15-.2.05-.07C489.9,104,490.55,106.59,489.07,110.45Z"/><path class="cls-1" d="M160.07,99.75l-.16,1-.07.46,0,.17c-.71,2.57-1.32,5.2-1.91,7.75-.83,3.58-1.69,7.29-2.86,10.87-2.4,7.33-7.38,11.8-16.16,14.51a2.22,2.22,0,0,1-1.9-.08,1.48,1.48,0,0,1-.5-1.14l.17-.17.27-.24.32-.25a2.83,2.83,0,0,1,.28-.2l.35-.23.29-.17a2.42,2.42,0,0,1,.39-.21,2.64,2.64,0,0,1,.29-.15l.43-.2.29-.13.49-.2.28-.11.58-.21.24-.09.86-.29c8.73-2.92,10.88-11.33,12.46-17.48,1.79-7,3.38-14.58,2.87-22.44a38,38,0,0,0-.53-3.93,23.39,23.39,0,0,1-.52-5.68,5.13,5.13,0,0,0-2.85-4.65c-.2-.1-.4-.2-.59-.31l-.19-.12-.34-.21-.21-.15-.27-.21-.19-.17-.24-.22-.17-.19a2.09,2.09,0,0,1-.2-.22l-.16-.21-.16-.23a1.64,1.64,0,0,1-.14-.22l-.15-.24a2.56,2.56,0,0,1-.11-.24,2.06,2.06,0,0,1-.12-.26,1.86,1.86,0,0,1-.1-.25,2.15,2.15,0,0,1-.1-.27,2,2,0,0,1-.08-.26c0-.09-.06-.19-.08-.28a2.86,2.86,0,0,1-.07-.28l-.06-.3a2.74,2.74,0,0,1-.05-.28c0-.11,0-.21,0-.32s0-.19,0-.3a1.66,1.66,0,0,1,0-.32l0-.32c0-.11,0-.22,0-.33s0-.22,0-.33,0-.23,0-.34v-.41c1.54-.39,2,.39,2.79,2a7.46,7.46,0,0,0,1.34,2.12l.4.4c2.56,2.55,4.76,4.74,5.16,8.53.48,4.52.62,9.13.75,13.59C160,96.64,160,98.19,160.07,99.75Z"/><path class="cls-1" d="M63.87,66.27l.28-.07-.37.1Z"/><path class="cls-1" d="M64.15,66.2a5.36,5.36,0,0,0,1-.29C65.05,66.09,64.88,66,64.15,66.2Z"/><path class="cls-1" d="M64.42,65.24l-.79.22a4.76,4.76,0,0,1-.87.18c0-.08,0-.18,0-.26s-.08-.38-.13-.59c-1.26-4.67-2.41-9-3.52-13.22-2.44-9.23-4.74-17.94-7.71-28.14-.38-1.32-.67-2.68-.94-4-.9-4.28-1.83-8.71-6.49-11.71a5,5,0,0,1-1.65-2.24,9.69,9.69,0,0,1,6.78,4.71c3.48,6.16,5.17,13,6.81,19.68.53,2.17,1.09,4.41,1.69,6.61.87,3.12,1.73,6.27,2.6,9.42,1.59,5.81,3.24,11.8,4.89,17.63,0,.05,0,.09-.06.12a.78.78,0,0,0-.12.22l0,.12s-.06.19-.16.5A4.94,4.94,0,0,0,64.42,65.24Z"/><path class="cls-1" d="M65.47,64.81c-.14.42-.2.69-.25.87A2.6,2.6,0,0,1,65.47,64.81Z"/><path class="cls-1" d="M565.87,130.31a36.13,36.13,0,0,0-1,7.86c-.09,1.7-.19,3.44-.45,5.13-.39,2.51-.71,5.07-1,7.55-.83,6.75-1.69,13.73-4.2,20.24a12.91,12.91,0,0,1-3.26,4.87,3.77,3.77,0,0,1-2.73,1.33,2.52,2.52,0,0,1-1.55-.86c.08-.07.15-.15.24-.22l.52-.47.53-.52c.17-.17.32-.33.47-.5s.33-.36.48-.54l.42-.52c.15-.18.29-.37.42-.56l.38-.53.37-.59.33-.55c.11-.2.22-.4.32-.6s.2-.38.29-.57.2-.41.29-.62.17-.38.25-.58.17-.42.25-.63.15-.39.22-.59.15-.43.22-.65.13-.4.19-.59.13-.45.19-.67.11-.4.16-.6.12-.46.17-.68.1-.4.14-.6l.15-.71.12-.58c0-.25.09-.49.13-.73s.07-.38.1-.58.09-.5.13-.75l.09-.55.12-.86c0-.15,0-.3.07-.45.06-.43.12-.86.19-1.29.09-.67.19-1.34.29-2l.07-.48c1.26-8.42,2.57-17.13,2.65-25.86,0-1.34.31-2.14.89-2.36a1.31,1.31,0,0,1,.27-.06,2.82,2.82,0,0,1,.39,0c.81,0,.93.49,1.16,1.72,0,.16.06.32.1.49l0,.16c0,.12.06.24.1.36a1.39,1.39,0,0,0,.06.19,1.75,1.75,0,0,0,.12.32,1.11,1.11,0,0,0,.09.19Z"/><path class="cls-1" d="M455.39,110.11A50.87,50.87,0,0,0,455,120c.42,4.77-.42,9.56-1.23,14.18a67.82,67.82,0,0,0-1.36,12h0a1.55,1.55,0,0,0-.75,1.37,2.36,2.36,0,0,1-.43,2,.94.94,0,0,1-.85.25c-.6-.09-.73-1.17-.76-2.88a111.23,111.23,0,0,1,1.55-17.15c1-6.74,2-13.7,1.43-20.74a31.29,31.29,0,0,1,.26-5.57L453,102l0-.41c0-.36.07-.73.09-1.09,0-.18,0-.37,0-.55s0-.64,0-1,0-.4,0-.61,0-.36,0-.55a2.17,2.17,0,0,1,1.72.09c.56.38.9,1.47,1,3.25A52.51,52.51,0,0,1,455.39,110.11Z"/><path class="cls-1" d="M621.25,16.5c-1.17,5.69-3.8,10.52-6.59,15.65-.52,1-1,1.9-1.54,2.85-2.65,5-5.57,9.89-8.5,14.69l-2.93,4.76c-3.85,6.24-7.83,12.69-11.35,19.3-3.42,6.41-7.49,12.62-11.42,18.63-1.52,2.33-3,4.66-4.54,7-2.37,3.74-2.38,7.05,0,11.43,2.53,4.69,4.8,9.64,7,14.42,2.06,4.47,4.19,9.1,6.53,13.53,1.44,2.75,2.91,5.48,4.37,8.21,2.79,5.2,5.67,10.58,8.36,15.94a17.2,17.2,0,0,1,.71,1.61c.07.17.11.35.17.52.12.36.25.72.35,1.08,0,.21.08.42.12.63s.15.64.19,1,0,.44.06.67.06.61.06.92,0,.46,0,.7,0,.59,0,.89-.08.48-.12.72-.09.58-.16.87-.14.49-.21.74-.16.56-.26.85-.2.51-.31.76-.2.48-.31.72c-3.36,1.72-6.25,2.09-8.58,1.11-2.5-1.06-4.37-3.68-5.57-7.79s-3.42-7.65-5.58-11.12c-.69-1.11-1.39-2.22-2-3.34a133.7,133.7,0,0,1-7.14-14.9c-1.37-3.21-2.79-6.53-4.36-9.72a.86.86,0,0,0-.1-.16,3.74,3.74,0,0,1-.47-1.47l-.09-.49a.25.25,0,0,1,0-.07c0-.15-.07-.31-.12-.47a1,1,0,0,1,0-.1,3.75,3.75,0,0,0-.16-.43s0-.09-.07-.13a2,2,0,0,0-.22-.37l-.11-.15a2.54,2.54,0,0,0-.28-.29,1.18,1.18,0,0,0-.18-.13,1.68,1.68,0,0,0-.34-.2l-.27-.11a2.46,2.46,0,0,0-.41-.1l-.36,0a2.06,2.06,0,0,0-.26,0l-.45,0c-.87.08-2.26.6-2.62,3a9.43,9.43,0,0,0-.09,1.14c-.07,8.61-1.37,17.26-2.62,25.62l-.07.48-.3,2-.18,1.31,0,.18c-.06.37-.11.74-.17,1.11l-.06.39-.15.89c0,.16-.05.31-.08.46s-.09.55-.14.81-.07.31-.1.47-.1.52-.16.78l-.12.49c-.05.25-.11.5-.17.74s-.09.33-.14.49-.13.48-.2.71-.1.33-.16.49-.14.46-.22.69-.13.33-.19.49-.17.44-.26.66-.14.33-.22.49-.18.42-.29.63l-.25.48c-.11.21-.21.41-.33.61s-.19.31-.29.47-.24.39-.37.58-.22.31-.34.46-.26.37-.41.55l-.38.45-.46.53-.43.43-.52.5c-.15.14-.32.28-.48.41s-.3.26-.46.38c-8.41-.48-9.81-3.49-10.08-6.08a28.75,28.75,0,0,1,0-8l.83-4.63c2.2-12.24,4.48-24.89,7.19-37.23,3.24-14.79,6.89-32.34,9.34-50.37.75-5.53,1.74-11.13,2.7-16.55.51-2.89,1-5.77,1.49-8.66a6.36,6.36,0,0,0,0-1.69c0-.17,0-.33,0-.5l.23-.71h0l0-.06a114.83,114.83,0,0,0,3.28-21.54c.16-3.6,1.34-6.35,3.42-8a8.87,8.87,0,0,1,7.12-1.36l.13,0a.36.36,0,0,1,0,.11c.05.26.1.52.14.79a7.64,7.64,0,0,0,.76,2.74s0,0,0,0l0,0a4.4,4.4,0,0,0,.52.75c.2.24.4.5.59.76l0,0,0,0v0l0,0,.09.15c1.43,2.18,1.85,4.76,2,7.88.27,5.52-.79,11-1.81,16.24-.44,2.29-.9,4.65-1.25,7a38.06,38.06,0,0,1-1,4.35,27.63,27.63,0,0,0-1.23,6.85,4.55,4.55,0,0,0,.41,2.15v0A2.35,2.35,0,0,0,577,61.45a2.3,2.3,0,0,0,.36,0h.15l.19,0a1.42,1.42,0,0,0,.31-.06l.14,0,.28-.12.09,0a2.27,2.27,0,0,0,.28-.18,3.58,3.58,0,0,0,1.11-2.57A12.07,12.07,0,0,1,581.59,54c.27-.51.54-1,.78-1.54,2.81-2.73,4.53-6.14,6.19-9.43a54.23,54.23,0,0,1,3.18-5.73c1.48-2.21,2.81-4.55,4.1-6.81,1-1.77,2-3.6,3.14-5.35l.1-.15c2.65-4.2,5.15-8.17,5.42-13.87A7.89,7.89,0,0,1,610,4c3.86-1.48,8.55-.86,11.3,1.39l0,0c-.12.15-.24.3-.35.46l0,0a4.14,4.14,0,0,0-.3.5l-.06.09a3.54,3.54,0,0,0-.23.53.36.36,0,0,0,0,.11,2.76,2.76,0,0,0-.16.58.13.13,0,0,0,0,.06,2.91,2.91,0,0,0-.06.6v.09a4,4,0,0,0,.06.67s0,.09,0,.13a5.61,5.61,0,0,0,.2.72.69.69,0,0,0,.05.13,8.11,8.11,0,0,0,.37.82A7.87,7.87,0,0,1,621.25,16.5Z"/><path class="cls-1" d="M582.09,42.41c-.73,3.11-1,6.35-1.42,9.53-1,2.09-2.36,4-2.58,6.4a4.46,4.46,0,0,1-.28,1.27l0,0a.62.62,0,0,1-.52.1c-.22,0-.82-.1-.81-1.8a25.87,25.87,0,0,1,1.17-6.42,39.12,39.12,0,0,0,1-4.55c.34-2.31.8-4.65,1.24-6.92,1-5.38,2.12-10.93,1.83-16.65-.19-4-.81-7.17-3.16-9.92a4.85,4.85,0,0,1-.94-2.69c0-.25-.07-.49-.12-.74a4,4,0,0,1,2.62.53,5.52,5.52,0,0,1,1.71,1.67l0,0,.07.11a12.83,12.83,0,0,1,1.35,3.67C585.17,24.94,584.15,33.68,582.09,42.41Z"/><path class="cls-1" d="M210.22,134.93c-.49.59-1,1.2-1.42,1.81-5.75,8.27-13.34,12.47-22.55,12.5a5.34,5.34,0,0,0-2.13.54,4,4,0,0,1-1.19.37c-1.34.13-3,.19-3.64-.54a2.6,2.6,0,0,1-.4-2.05l1.3-.17.68-.08,2.22-.23c4.65-.46,9.46-.94,13.84-3.21,6.11-3.16,9.92-8.74,12.85-13.78.11-.2.22-.37.33-.54l.1-.15a3.55,3.55,0,0,1,.23-.31l.12-.16c.07-.08.14-.17.21-.24l.13-.14.22-.21a.69.69,0,0,0,.13-.11l.27-.19.1-.07a3.23,3.23,0,0,1,.41-.22l.08,0,.32-.12C213.83,130.57,212.07,132.69,210.22,134.93Z"/><path class="cls-1" d="M537.67,141.44q-.13.44-.24.87l-.35,1.38c-2,8.19-4,15.91-10.91,21.38a53,53,0,0,1-9.5,5.78,2.18,2.18,0,0,1-1.7.19,1.63,1.63,0,0,1-.85-.74,1,1,0,0,0,.08-.11l.21-.26a3.88,3.88,0,0,1,.26-.31l.21-.24.29-.3.23-.21.32-.28.25-.21.36-.26.26-.19.41-.26.26-.16.51-.29.22-.12.8-.39a23.86,23.86,0,0,0,11.35-11q.4-.75.75-1.5c.47-1,.89-2,1.27-3.08a60.16,60.16,0,0,0,1.87-6.26,13.73,13.73,0,0,0,.29-2.34c0-.31,0-.6.08-.87v-.06c0-.27.06-.52.1-.77,0,0,0,0,0-.07a5.38,5.38,0,0,1,.15-.66s0-.06,0-.08a3.21,3.21,0,0,1,.22-.57l0-.08a3,3,0,0,1,.31-.48l.06-.06a2.23,2.23,0,0,1,.42-.39l.08-.06a3.26,3.26,0,0,1,.56-.3l.1,0a3.4,3.4,0,0,1,.72-.21h.05C538.39,138.75,538.16,139.78,537.67,141.44Z"/><path class="cls-1" d="M347.52,104s-.08.06-.33.07l-.15-.62a15.48,15.48,0,0,1-.62-3.92c.08-8-.22-16.07-.52-23.9-.26-7.09-.53-14.42-.52-21.63,0-4.34,0-10.85-5.82-14.26a2.62,2.62,0,0,1,0-.29v-.12c3.27.77,5.13,3.69,6.14,9.52A86.22,86.22,0,0,1,346.42,65c-.07,3.85-.14,7.83.18,11.75.61,7.62.84,15.66.73,25.3a4.56,4.56,0,0,0,.11,1A3,3,0,0,1,347.52,104Z"/><path class="cls-1" d="M560.13,40.7l-.12.37a2.62,2.62,0,0,0-.81,1.14c-.07.15-.2.42-.23.46a.62.62,0,0,1-.27-.07l-.18-.09-.24-.12-.15-.11-.17-.14-.11-.13s-.09-.1-.13-.16l-.06-.13a1.24,1.24,0,0,1-.1-.2.75.75,0,0,1,0-.16,1.66,1.66,0,0,1-.06-.21,1.23,1.23,0,0,1,0-.19,1.72,1.72,0,0,1,0-.24c0-.09,0-.19,0-.28s0-.13,0-.21v-.55a13.67,13.67,0,0,0,0-1.42l-.2-1.81c-.67-6.25-1.36-12.66-5.16-18A20.61,20.61,0,0,0,548.8,15a6.38,6.38,0,0,1-.52-.52A3.35,3.35,0,0,0,545.36,13c-1.42.14-3.17,0-3.4-1-.11-.48.23-.77,1.37-1.43.25-.15.51-.3.75-.46l.23-.16c.1-.08.21-.14.3-.22,9.61,2.56,13.64,14.07,14.5,20.56.32,2.4.54,4.86.74,7.24C559.94,38.6,560,39.65,560.13,40.7Z"/><path class="cls-1" d="M226.78,30c-.06,1.32-.27,1.78-.92,2.06s-.9,0-1.64-.64a6.3,6.3,0,0,0-.72-.62c.05-.17.07-.34.11-.51s.11-.5.16-.74.09-.54.13-.81.07-.49.1-.73.05-.53.07-.79,0-.48,0-.72,0-.52,0-.77,0-.47,0-.7,0-.51,0-.77,0-.46-.07-.69-.07-.5-.11-.75-.06-.45-.11-.68-.1-.5-.16-.74-.09-.45-.15-.67-.14-.49-.21-.74-.12-.44-.19-.65-.17-.5-.26-.74-.14-.43-.22-.64l-.3-.75-.26-.63c-.11-.25-.22-.5-.34-.75s-.18-.41-.28-.61-.25-.52-.38-.77-.19-.4-.3-.6-.28-.52-.42-.79-.2-.38-.31-.57-.31-.56-.47-.84l-.3-.53-.55-.94-.26-.44-.84-1.38a10.34,10.34,0,0,0-2-2.23,12.22,12.22,0,0,1-1.4-1.38c-1.09-1.33-1.52-2.27-.73-3.42.33-.42.64-.67.85-.68s.86.56,1.28,1l.34.36C223.55,10.1,227.23,19.51,226.78,30Z"/><path class="cls-1" d="M253.43,27.53a66.2,66.2,0,0,0-.48,9.56c0,.83,0,1.67,0,2.51a1.88,1.88,0,0,0-.12.18l-.16.23c-.06.1-.12.19-.17.29l-.12.24c0,.1-.08.2-.11.3l-.09.24c0,.1,0,.21-.08.31a2,2,0,0,0-.05.24c0,.11,0,.21-.05.32s0,.15,0,.23,0,.23,0,.34a1.49,1.49,0,0,0,0,.21c0,.13,0,.25,0,.37a1.09,1.09,0,0,1,0,.18v.64a1.26,1.26,0,0,1-.32.92A.71.71,0,0,1,251,45a.83.83,0,0,1-.57-.27,1.37,1.37,0,0,1-.25-1c.18-2.33.12-4.69.07-7a45.28,45.28,0,0,1,.55-10.44c.74-3.58.48-7.36.24-11l-.08-1.26a7.42,7.42,0,0,1,0-.81,1.79,1.79,0,0,1,0-.23c0-.17,0-.34,0-.5a2.38,2.38,0,0,1,.05-.26c0-.14.05-.27.09-.4a1.84,1.84,0,0,1,.09-.25c0-.11.08-.23.13-.34l.13-.23a1.75,1.75,0,0,1,.18-.29l.16-.21.23-.26.21-.19.28-.22.25-.18.13-.07c.5.28.71.51.71.84,0,1.64.07,3.31.12,4.93A68.63,68.63,0,0,1,253.43,27.53Z"/><path class="cls-1" d="M238.12,143.5c.08.41.21,1,.07,1.2s-.17.18-.71.23l-.2-.12-.27-.17-.25-.19-.23-.18a2.09,2.09,0,0,1-.22-.2,1.62,1.62,0,0,1-.18-.19l-.19-.21-.15-.2-.15-.23-.12-.2-.12-.24-.09-.2-.09-.26-.06-.21a1.31,1.31,0,0,1-.06-.27,1.6,1.6,0,0,1,0-.21,2.7,2.7,0,0,0,0-.28,1.8,1.8,0,0,0,0-.22c0-.09,0-.19,0-.29v-.52a1.62,1.62,0,0,1,0-.22c0-.1,0-.21,0-.32s0-.14,0-.21,0-.23,0-.34a1.36,1.36,0,0,0,0-.2l.06-.38a1,1,0,0,1,0-.17l.06-.4,0-.16.09-.55c.11-.61.21-1.19.27-1.75.25-2.2.44-4.43.62-6.58.24-2.84.49-5.77.89-8.63a5.12,5.12,0,0,0,0-1.11,2.16,2.16,0,0,1,0-.83c.12-.3.22-.64.33-1a4,4,0,0,1,.73-1.59l.09,0c.06,0,.11-.07.17-.06a1.33,1.33,0,0,1,.89.54,2.2,2.2,0,0,1,.43,1.74,5.57,5.57,0,0,0,.59,3.19l.1.25c-1.5,5.57-1.87,11.33-2.23,16.9-.08,1.25-.16,2.5-.26,3.76A4.86,4.86,0,0,0,238.12,143.5Z"/><path class="cls-1" d="M80.82,79.22l.14-.14c0,.48,0,.8-.06,1v.1c0,.13,0,.26,0,.35l0,.2a8.65,8.65,0,0,1-.28.85.8.8,0,0,0,0,.15c0,.16,0,.3-.07.44a16.1,16.1,0,0,0-.26,2.28A15.67,15.67,0,0,1,80,86.4c-.89,1.31-1.67,2.71-2.43,4.06-2,3.51-3.85,6.83-7.39,8.92a13,13,0,0,1-6.28,1.19,8.72,8.72,0,0,1,1.87-1c6.39-2.67,8.92-8.28,11.37-13.7.82-1.82,1.68-3.7,2.63-5.38l.23-.37C80.17,79.85,80.17,79.85,80.82,79.22Z"/><path class="cls-1" d="M81.41,77.84a.87.87,0,0,0-.36.09A.5.5,0,0,1,81.41,77.84Z"/><path class="cls-1" d="M81.37,81.91l.09-.26c0,.18-.09.35-.13.52C81.34,82.09,81.36,82,81.37,81.91Z"/><path class="cls-1" d="M81.59,81.25c0-.1.06-.19.08-.27a.2.2,0,0,0,0,.07C81.64,81.12,81.61,81.19,81.59,81.25Z"/><path class="cls-1" d="M81.83,78.92a12,12,0,0,1-.08,1.31C81.76,80,81.77,79.57,81.83,78.92Z"/><path class="cls-1" d="M320.58,81c-3.84,3.12-5.3,7.48-6.72,11.72a36.71,36.71,0,0,1-3,7.27l-.38.64c-1.21,2-2.13,3.42-3.83,3.59a1.58,1.58,0,0,0,.12-.15c.44-.52.85-1.05,1.24-1.59l.14-.19q.6-.86,1.14-1.74s0,0,0,0c.36-.59.7-1.19,1-1.8l.1-.18c.31-.58.6-1.18.89-1.78l.12-.27c.28-.58.54-1.17.79-1.77.05-.1.09-.2.13-.3.25-.6.49-1.19.72-1.78l.12-.31c.24-.6.47-1.21.69-1.81a2.77,2.77,0,0,1,.1-.26c.22-.62.45-1.23.67-1.85.57-1.54,1.15-3.14,1.77-4.68.67-1.71,1.42-2.67,2.29-3a2.06,2.06,0,0,1,.62-.09l.14,0a2.62,2.62,0,0,1,.53.08l.27.08Z"/><path class="cls-1" d="M387.15,113.66c-.57,3.32-.84,6.73-1.1,10-.52,6.52-1.05,13.26-4,19.38a7.5,7.5,0,0,0-.77,4.07s0,0,0,0l0,0a2.57,2.57,0,0,0-.34.4,1.3,1.3,0,0,0-.1.15,2.71,2.71,0,0,0-.21.37,1.09,1.09,0,0,0-.08.15c-.08.16-.16.32-.23.48-.2.44-.46,1-.68,1.08a.94.94,0,0,1-.6-.14,2.2,2.2,0,0,1-1.27-1.23c-.28-.8,0-2,.74-3.54,4.13-8.33,4.64-17.39,5.13-26.16l.1-1.82c.09-1.47.43-2.41,1-2.88a2.62,2.62,0,0,1,1.65-.45A6.56,6.56,0,0,1,387.15,113.66Z"/><path class="cls-1" d="M138.16,87.58c0,.12-.33.48-.49.66a5.41,5.41,0,0,0-.66.86,3.91,3.91,0,0,0-.36,2.11c0,.2,0,.39,0,.57l-1.56,3-3.68,7.06-.12.22c-1.76,3.34-3.73,7.11-.22,10.76l-.36.29-.09.06a3.71,3.71,0,0,1-.54.33l-.14.06a3.79,3.79,0,0,1-.42.18,1.39,1.39,0,0,1-.19.06,2.62,2.62,0,0,1-.38.09l-.21,0h-.57a1.53,1.53,0,0,1-.37-.08l-.18,0a2.52,2.52,0,0,1-.51-.27c-1.9-1.31-1.47-4.22-.92-5.73a112.14,112.14,0,0,1,5.53-12.12l.36-.7c.34-.67.64-1.37.93-2a12.86,12.86,0,0,1,2.78-4.62,5.13,5.13,0,0,0,.64-.77c.21-.29.53-.72.72-.74h0a1.1,1.1,0,0,1,.56.3C138.13,87.42,138.16,87.58,138.16,87.58Z"/><path class="cls-1" d="M333.05,49.33c-5.55,4.83-9.33,11.39-11.53,20h-1.37a62.85,62.85,0,0,1,6.4-14.06q1.4-2.28,3-4.53c.86-1.21,1.82-1.88,2.61-1.84a1.28,1.28,0,0,1,.35.08l.08,0a1.69,1.69,0,0,1,.29.17l0,0A1.59,1.59,0,0,1,333.05,49.33Z"/><path d="M65.22,65.68c0-.18.11-.45.25-.87A2.6,2.6,0,0,0,65.22,65.68Zm-.06.21s0-.08,0-.15Zm-1,.31c.73-.16.9-.11,1-.29A5.36,5.36,0,0,1,64.15,66.2Zm-.28.07-.09,0,.37-.1ZM81.48,77.85c.24.1.33.48.35,1C81.88,78.17,81.74,77.89,81.48,77.85Zm.27,2.38a12,12,0,0,0,.08-1.31C81.77,79.57,81.76,80,81.75,80.23Zm-.08.73a3.12,3.12,0,0,0,.07-.63C81.72,80.56,81.69,80.77,81.67,81Zm-.08.29c0-.06,0-.13.07-.2a.2.2,0,0,1,0-.07C81.65,81.06,81.62,81.15,81.59,81.25Zm-.22.66c0,.09,0,.18,0,.26,0-.17.08-.34.13-.52Zm-.32-4a.87.87,0,0,1,.36-.09A.5.5,0,0,0,81.05,77.93Zm0,7.24c.07-.88.11-1.59.31-3A19.47,19.47,0,0,0,81,85.17Zm-1.44-5.91c.14-.16.37-.38.89-.88a1.85,1.85,0,0,0,.14-.14A5.23,5.23,0,0,0,79.57,79.26Zm-.25.32a3.72,3.72,0,0,0-.19.34c.14-.21.21-.34.27-.44Z"/></g></g></svg>